<svg width="24" height="28" viewBox="0 0 24 28" fill="none" xmlns="http://www.w3.org/2000/svg">
<path d="M17 2.41235H7C4.23858 2.41235 2 5.00626 2 8.20602V19.7933C2 22.9931 4.23858 25.587 7 25.587H17C19.7614 25.587 22 22.9931 22 19.7933V8.20602C22 5.00626 19.7614 2.41235 17 2.41235Z" stroke="black" stroke-width="2" stroke-linecap="round" stroke-linejoin="round"/>
<path d="M16 13.2698C16.1234 14.2341 15.9812 15.219 15.5937 16.0843C15.2062 16.9497 14.5931 17.6514 13.8416 18.0897C13.0901 18.528 12.2384 18.6806 11.4077 18.5257C10.5771 18.3708 9.80971 17.9164 9.21479 17.227C8.61987 16.5377 8.22768 15.6485 8.09402 14.686C7.96035 13.7235 8.09202 12.7366 8.47028 11.8658C8.84854 10.995 9.45414 10.2846 10.2009 9.83556C10.9477 9.38655 11.7977 9.22183 12.63 9.36484C13.4789 9.5107 14.2648 9.96907 14.8716 10.6722C15.4785 11.3754 15.8741 12.2861 16 13.2698Z" stroke="black" stroke-width="2" stroke-linecap="round" stroke-linejoin="round"/>
<path d="M17.5 7.62671H17.51" stroke="black" stroke-width="2" stroke-linecap="round" stroke-linejoin="round"/>
</svg>

