<svg width="24" height="29" viewBox="0 0 24 29" fill="none" xmlns="http://www.w3.org/2000/svg">
<path d="M16 9.52368C17.5913 9.52368 19.1174 10.2562 20.2426 11.56C21.3679 12.8638 22 14.6322 22 16.4761V24.5872H18V16.4761C18 15.8614 17.7893 15.272 17.4142 14.8374C17.0391 14.4028 16.5304 14.1586 16 14.1586C15.4696 14.1586 14.9609 14.4028 14.5858 14.8374C14.2107 15.272 14 15.8614 14 16.4761V24.5872H10V16.4761C10 14.6322 10.6321 12.8638 11.7574 11.56C12.8826 10.2562 14.4087 9.52368 16 9.52368V9.52368Z" stroke="black" stroke-width="2" stroke-linecap="round" stroke-linejoin="round"/>
<path d="M6 10.6826H2V24.5874H6V10.6826Z" stroke="black" stroke-width="2" stroke-linecap="round" stroke-linejoin="round"/>
<path d="M4 7.20622C5.10457 7.20622 6 6.16866 6 4.88875C6 3.60885 5.10457 2.57129 4 2.57129C2.89543 2.57129 2 3.60885 2 4.88875C2 6.16866 2.89543 7.20622 4 7.20622Z" stroke="black" stroke-width="2" stroke-linecap="round" stroke-linejoin="round"/>
</svg>

