<svg width="702" height="533" viewBox="0 0 702 533" fill="none" xmlns="http://www.w3.org/2000/svg">
<path d="M142.375 445.016C154.057 437.369 157.024 422.721 156.902 409.448C156.902 407.239 157.183 404.918 156.163 402.952C155.142 400.987 152.699 399.611 150.668 400.491C148.993 401.221 148.225 403.111 147.252 404.665C145.954 406.745 144.095 408.416 141.889 409.485C140.447 410.178 138.678 410.581 137.293 409.785C135.421 408.69 135.224 406.041 135.29 403.86C135.421 399.767 135.546 395.676 135.664 391.589C135.856 389.392 135.685 387.179 135.159 385.037C134.88 383.977 134.351 382.999 133.616 382.185C132.882 381.37 131.963 380.744 130.937 380.357C128.831 379.721 126.192 380.863 125.686 382.997C125.582 383.904 125.538 384.817 125.555 385.73C125.557 386.188 125.423 386.636 125.17 387.018C124.916 387.399 124.555 387.697 124.133 387.873C123.673 387.916 123.209 387.84 122.787 387.653C122.364 387.466 121.996 387.175 121.718 386.806C119.587 384.423 117.86 381.707 116.607 378.766C115.356 375.829 113.76 373.051 111.852 370.492C109.831 368.021 106.994 366.036 103.812 365.812C100.63 365.587 97.1946 367.422 96.3241 370.492C95.4536 373.562 97.1946 376.754 99.1321 379.299C102 383.095 105.401 386.456 109.232 389.277C109.977 389.707 110.567 390.363 110.916 391.149C111.356 392.628 109.915 394.041 108.445 394.491C106.77 394.996 104.973 394.781 103.241 394.94C101.51 395.099 99.6001 395.811 98.9074 397.411C97.9714 399.639 99.7873 402.035 101.612 403.617C105.294 406.8 109.491 409.332 114.024 411.105C115.695 411.605 117.262 412.404 118.648 413.463C119.939 414.624 120.688 416.618 119.855 418.143C119.022 419.669 116.963 420.118 115.25 419.763C113.598 419.271 111.992 418.638 110.448 417.872C107.416 416.665 103.466 416.777 101.444 419.342C100.82 420.217 100.41 421.228 100.247 422.291C100.085 423.354 100.174 424.441 100.508 425.463C101.207 427.496 102.309 429.368 103.747 430.967C108.466 436.841 114.657 441.363 121.69 444.071C128.719 446.673 135.28 447.487 142.385 445.11" fill="#FFF6F2"/>
<path d="M99.5996 367.6L99.8149 367.815L100.461 368.404C101.032 368.929 101.865 369.696 102.922 370.716C105.907 373.592 108.673 376.686 111.197 379.973C112.797 382.042 114.463 384.391 116.204 386.937C117.945 389.483 119.77 392.235 121.596 395.183C123.521 398.254 125.274 401.429 126.847 404.693C127.67 406.387 128.391 408.166 129.121 409.972C129.851 411.779 130.6 413.613 131.349 415.476C134.218 422.431 136.69 429.544 138.752 436.779C140.412 442.696 141.506 448.758 142.019 454.882C142.355 459.01 142.323 463.16 141.926 467.284C141.776 468.734 141.635 469.867 141.514 470.634C141.458 470.999 141.42 471.29 141.383 471.505C141.376 471.605 141.376 471.705 141.383 471.804C141.414 471.709 141.439 471.613 141.458 471.514C141.458 471.299 141.551 471.009 141.617 470.644C141.766 469.886 141.935 468.772 142.113 467.302C142.572 463.172 142.647 459.007 142.337 454.863C141.867 448.714 140.798 442.626 139.146 436.686C137.098 429.426 134.632 422.291 131.761 415.317C130.999 413.445 130.257 411.613 129.533 409.822C128.793 408.016 128.063 406.228 127.24 404.515C125.651 401.241 123.883 398.057 121.942 394.978C120.07 392.029 118.254 389.296 116.513 386.75C114.772 384.204 113.078 381.864 111.449 379.796C108.888 376.514 106.071 373.441 103.025 370.604C101.949 369.603 101.088 368.844 100.498 368.348L99.8336 367.777C99.6838 367.656 99.609 367.59 99.5996 367.6Z" fill="#263238"/>
<path d="M127.1 404.497C127.211 404.194 127.29 403.88 127.334 403.561C127.465 402.952 127.634 402.082 127.811 400.987C128.176 398.806 128.588 395.783 129.019 392.45C129.449 389.118 129.899 386.104 130.301 383.933C130.498 382.856 130.666 381.977 130.788 381.368C130.872 381.063 130.923 380.749 130.938 380.432C130.796 380.73 130.692 381.044 130.629 381.368C130.46 381.958 130.245 382.828 130.011 383.905C129.543 386.067 129.075 389.081 128.616 392.422C128.158 395.764 127.811 398.693 127.531 400.977C127.39 401.998 127.269 402.849 127.184 403.561C127.12 403.868 127.092 404.182 127.1 404.497Z" fill="#263238"/>
<path d="M98.6357 398.544C99.0074 398.632 99.3866 398.685 99.7683 398.703C100.498 398.787 101.565 398.899 102.866 399.086C105.478 399.423 109.072 400.022 113.003 400.846C116.935 401.67 120.491 402.596 122.99 403.317C124.263 403.673 125.284 403.991 125.986 404.206C126.346 404.341 126.719 404.438 127.1 404.497C126.758 404.325 126.404 404.178 126.042 404.057C125.349 403.795 124.338 403.439 123.075 403.046C120.557 402.241 117.028 401.286 113.088 400.453C109.723 399.73 106.324 399.177 102.904 398.796C101.584 398.647 100.517 398.581 99.787 398.553C99.4046 398.511 99.0188 398.508 98.6357 398.544V398.544Z" fill="#263238"/>
<path d="M138.781 436.152C138.864 436.049 138.934 435.936 138.987 435.815L139.502 434.804C139.942 433.924 140.55 432.642 141.28 431.06C142.741 427.859 144.613 423.376 146.606 418.406C148.6 413.435 150.444 408.933 151.829 405.713L153.486 401.895L153.935 400.856C154.029 400.612 154.075 400.481 154.057 400.481C153.98 400.586 153.914 400.699 153.86 400.818L153.345 401.829C152.896 402.709 152.297 403.991 151.567 405.573C150.107 408.774 148.235 413.258 146.232 418.228C144.229 423.198 142.404 427.7 141.009 430.92C140.335 432.492 139.773 433.784 139.352 434.739L138.912 435.778C138.853 435.896 138.809 436.022 138.781 436.152V436.152Z" fill="#263238"/>
<path d="M101.088 423.16C101.088 423.16 101.21 423.235 101.453 423.329L102.548 423.713L106.592 425.117C109.999 426.296 114.688 427.981 119.864 429.853C125.04 431.725 129.748 433.363 133.183 434.477C134.906 435.038 136.291 435.469 137.264 435.75L138.378 436.068C138.64 436.143 138.781 436.171 138.781 436.152C138.662 436.086 138.536 436.033 138.406 435.993L137.311 435.6L133.277 434.205C129.87 433.026 125.181 431.341 120.004 429.469C114.828 427.597 110.111 425.95 106.685 424.836C104.963 424.284 103.568 423.844 102.604 423.563L101.481 423.245C101.353 423.204 101.221 423.175 101.088 423.16V423.16Z" fill="#263238"/>
<path d="M522.213 346.249L465.744 345.987C464.128 345.983 462.528 345.661 461.037 345.037C459.546 344.413 458.193 343.501 457.056 342.353C455.918 341.205 455.018 339.844 454.408 338.347C453.798 336.85 453.49 335.248 453.501 333.632L454.1 192.455C454.109 190.842 454.435 189.246 455.061 187.758C455.687 186.271 456.599 184.922 457.747 183.787C458.894 182.653 460.254 181.756 461.748 181.147C463.242 180.539 464.842 180.23 466.456 180.24L522.924 180.493C526.181 180.505 529.301 181.809 531.598 184.118C533.894 186.428 535.182 189.554 535.177 192.811L534.578 333.997C534.573 335.614 534.249 337.214 533.624 338.706C533 340.197 532.087 341.551 530.938 342.689C529.79 343.828 528.428 344.728 526.93 345.339C525.433 345.95 523.83 346.259 522.213 346.249V346.249Z" fill="#455A64"/>
<path d="M522.85 185.407H511.899C511.543 185.412 511.191 185.487 510.864 185.628C510.537 185.769 510.241 185.973 509.993 186.229C509.746 186.485 509.551 186.787 509.42 187.118C509.289 187.449 509.225 187.803 509.231 188.159V190.143C509.239 190.862 508.963 191.554 508.464 192.071C507.964 192.588 507.282 192.887 506.563 192.904L485.213 192.801C484.855 192.793 484.501 192.713 484.174 192.567C483.847 192.421 483.551 192.211 483.306 191.95C483.06 191.688 482.869 191.381 482.743 191.045C482.618 190.709 482.56 190.352 482.574 189.993V187.99C482.586 187.632 482.528 187.275 482.402 186.94C482.275 186.605 482.084 186.298 481.839 186.037C481.593 185.776 481.299 185.566 480.972 185.419C480.645 185.272 480.292 185.192 479.934 185.182H476.078H466.493C465.364 185.176 464.244 185.393 463.198 185.819C462.152 186.246 461.2 186.874 460.397 187.669C459.594 188.463 458.955 189.408 458.517 190.449C458.079 191.49 457.851 192.608 457.845 193.737L457.255 331.545C457.25 333.827 458.151 336.018 459.761 337.636C461.37 339.254 463.556 340.167 465.838 340.174L522.195 340.437C524.476 340.447 526.668 339.552 528.291 337.948C529.914 336.345 530.835 334.163 530.853 331.882L531.433 194.074C531.442 192.941 531.226 191.817 530.799 190.767C530.372 189.717 529.741 188.762 528.943 187.956C528.146 187.151 527.197 186.511 526.151 186.073C525.105 185.636 523.983 185.409 522.85 185.407V185.407Z" fill="white"/>
<path d="M521.923 279.176H466.156V282.91H521.923V279.176Z" fill="#455A64"/>
<path d="M519.939 293.861C519.939 293.992 508.033 294.105 493.356 294.105C478.68 294.105 466.765 293.992 466.765 293.861C466.765 293.73 478.671 293.618 493.356 293.618C508.042 293.618 519.939 293.73 519.939 293.861Z" fill="#455A64"/>
<path d="M519.939 205.4C519.939 205.54 508.033 205.643 493.356 205.643C478.68 205.643 466.765 205.54 466.765 205.4C466.765 205.259 478.671 205.156 493.356 205.156C508.042 205.156 519.939 205.241 519.939 205.4Z" fill="#455A64"/>
<path d="M519.939 300.657C519.939 300.788 508.033 300.9 493.356 300.9C478.68 300.9 466.765 300.788 466.765 300.657C466.765 300.526 478.671 300.413 493.356 300.413C508.042 300.413 519.939 300.516 519.939 300.657Z" fill="#455A64"/>
<path d="M519.939 307.424C519.939 307.555 508.033 307.667 493.356 307.667C478.68 307.667 466.765 307.555 466.765 307.424C466.765 307.293 478.671 307.18 493.356 307.18C508.042 307.18 519.939 307.311 519.939 307.424Z" fill="#455A64"/>
<path d="M519.939 314.238C519.939 314.369 508.033 314.481 493.356 314.481C478.68 314.481 466.765 314.369 466.765 314.238C466.765 314.107 478.671 313.995 493.356 313.995C508.042 313.995 519.939 314.098 519.939 314.238Z" fill="#455A64"/>
<path d="M519.939 321.024C519.939 321.164 508.033 321.267 493.356 321.267C478.68 321.267 466.765 321.164 466.765 321.024C466.765 320.883 478.671 320.781 493.356 320.781C508.042 320.781 519.939 320.893 519.939 321.024Z" fill="#455A64"/>
<path d="M520.697 328.727C520.697 328.858 508.791 328.971 494.114 328.971C479.438 328.971 467.522 328.858 467.522 328.727C467.522 328.596 479.428 328.484 494.114 328.484C508.8 328.484 520.697 328.587 520.697 328.727Z" fill="#455A64"/>
<path d="M522.672 213.122H466.765V267.213H522.672V213.122Z" fill="#E0E0E0"/>
<path d="M471.098 262.58L486.57 234.743L499.215 252.537L506.9 243.083L518.338 262.58H471.098Z" fill="#FFF6F2"/>
<path d="M504.607 229.333C504.607 230.129 504.371 230.908 503.929 231.569C503.487 232.231 502.858 232.747 502.123 233.052C501.387 233.356 500.578 233.436 499.797 233.281C499.016 233.126 498.299 232.742 497.736 232.179C497.174 231.616 496.79 230.899 496.635 230.119C496.48 229.338 496.559 228.529 496.864 227.793C497.169 227.058 497.684 226.429 498.346 225.987C499.008 225.545 499.786 225.309 500.582 225.309C501.649 225.311 502.671 225.736 503.426 226.49C504.18 227.244 504.605 228.267 504.607 229.333Z" fill="#FFF6F2"/>
<path d="M518.338 262.73C518.338 262.73 518.338 262.655 518.338 262.505C518.338 262.355 518.338 262.14 518.338 261.878C518.338 261.298 518.338 260.493 518.338 259.444C518.338 257.301 518.338 254.194 518.272 250.253C518.272 242.353 518.207 231.102 518.16 217.596L518.385 217.821H471.154C471.089 217.877 471.65 217.315 471.416 217.558V229.726C471.416 233.704 471.416 237.598 471.416 241.38C471.416 248.961 471.416 256.122 471.416 262.711L471.182 262.477L505.337 262.599L514.978 262.655H517.533H518.188H518.422H518.216H517.58H515.071L505.487 262.711L471.182 262.833H470.948V262.599C470.948 256.047 470.948 248.849 470.948 241.267C470.948 237.523 470.948 233.592 470.948 229.614V217.446C470.705 217.68 471.266 217.109 471.22 217.175H518.45H518.544V217.568C518.488 231.14 518.45 242.437 518.422 250.375C518.422 254.287 518.422 257.376 518.366 259.51C518.366 260.54 518.366 261.335 518.366 261.897C518.366 262.15 518.366 262.346 518.366 262.505C518.367 262.581 518.358 262.657 518.338 262.73V262.73Z" fill="#455A64"/>
<path d="M228.796 132.373V257.067C228.796 263.038 233.636 267.878 239.607 267.878H427.967C433.938 267.878 438.778 263.038 438.778 257.067V132.373C438.778 126.403 433.938 121.562 427.967 121.562H239.607C233.636 121.562 228.796 126.403 228.796 132.373Z" fill="#455A64"/>
<path d="M243.154 126.177V263.263H418.514V126.177H243.154Z" fill="white"/>
<path d="M428.22 189.104C429.331 189.104 430.417 189.434 431.341 190.051C432.264 190.668 432.984 191.545 433.409 192.571C433.834 193.597 433.945 194.726 433.729 195.816C433.512 196.905 432.977 197.906 432.192 198.691C431.406 199.477 430.406 200.012 429.316 200.228C428.227 200.445 427.098 200.334 426.071 199.909C425.045 199.484 424.168 198.764 423.551 197.84C422.934 196.917 422.604 195.831 422.604 194.72C422.604 193.231 423.196 191.802 424.249 190.749C425.303 189.696 426.731 189.104 428.22 189.104Z" fill="#263238"/>
<path d="M234.843 173.829V215.612C234.843 216.242 235.354 216.754 235.985 216.754H236.022C236.653 216.754 237.164 216.242 237.164 215.612V173.829C237.164 173.198 236.653 172.687 236.022 172.687H235.985C235.354 172.687 234.843 173.198 234.843 173.829Z" fill="#263238"/>
<path d="M378.911 136.473H323.145V140.208H378.911V136.473Z" fill="#455A64"/>
<path d="M306.269 200.617H250.502V204.352H306.269V200.617Z" fill="#455A64"/>
<path d="M392.493 150.363C392.493 150.504 376.975 150.607 357.861 150.607C338.748 150.607 323.183 150.504 323.183 150.363C323.183 150.223 338.701 150.12 357.861 150.12C377.021 150.12 392.493 150.232 392.493 150.363Z" fill="#455A64"/>
<path d="M392.493 158.516C392.493 158.647 376.975 158.759 357.861 158.759C338.748 158.759 323.183 158.647 323.183 158.516C323.183 158.385 338.701 158.272 357.861 158.272C377.021 158.272 392.493 158.375 392.493 158.516Z" fill="#455A64"/>
<path d="M392.493 166.659C392.493 166.79 376.975 166.902 357.861 166.902C338.748 166.902 323.183 166.79 323.183 166.659C323.183 166.528 338.701 166.416 357.861 166.416C377.021 166.416 392.493 166.528 392.493 166.659Z" fill="#455A64"/>
<path d="M392.493 174.802C392.493 174.943 376.975 175.046 357.861 175.046C338.748 175.046 323.183 174.943 323.183 174.802C323.183 174.662 338.701 174.559 357.861 174.559C377.021 174.559 392.493 174.671 392.493 174.802Z" fill="#455A64"/>
<path d="M392.493 182.936C392.493 183.067 376.975 183.179 357.861 183.179C338.748 183.179 323.183 183.067 323.183 182.936C323.183 182.805 338.701 182.693 357.861 182.693C377.021 182.693 392.493 182.814 392.493 182.936Z" fill="#455A64"/>
<path d="M377.283 191.098C377.283 191.229 365.162 191.341 350.214 191.341C335.266 191.341 323.145 191.229 323.145 191.098C323.145 190.967 335.256 190.854 350.214 190.854C365.171 190.854 377.283 190.967 377.283 191.098Z" fill="#455A64"/>
<path d="M342.09 215.303C342.09 215.434 321.722 215.546 296.6 215.546C271.478 215.546 251.11 215.434 251.11 215.303C251.11 215.172 271.478 215.06 296.6 215.06C321.722 215.06 342.09 215.163 342.09 215.303Z" fill="#455A64"/>
<path d="M342.09 222.089C342.09 222.229 321.722 222.332 296.6 222.332C271.478 222.332 251.11 222.229 251.11 222.089C251.11 221.948 271.478 221.845 296.6 221.845C321.722 221.845 342.09 221.958 342.09 222.089Z" fill="#455A64"/>
<path d="M342.09 228.884C342.09 229.015 321.722 229.128 296.6 229.128C271.478 229.128 251.11 229.015 251.11 228.884C251.11 228.753 271.478 228.641 296.6 228.641C321.722 228.641 342.09 228.744 342.09 228.884Z" fill="#455A64"/>
<path d="M342.09 235.67C342.09 235.811 321.722 235.914 296.6 235.914C271.478 235.914 251.11 235.811 251.11 235.67C251.11 235.53 271.478 235.427 296.6 235.427C321.722 235.427 342.09 235.539 342.09 235.67Z" fill="#455A64"/>
<path d="M342.09 242.466C342.09 242.597 321.722 242.709 296.6 242.709C271.478 242.709 251.11 242.597 251.11 242.466C251.11 242.334 271.478 242.222 296.6 242.222C321.722 242.222 342.09 242.334 342.09 242.466Z" fill="#455A64"/>
<path d="M307.018 134.554H251.11V188.646H307.018V134.554Z" fill="#FFF6F2"/>
<path d="M255.443 184.022L270.915 156.185L283.561 173.969L291.245 164.525L302.683 184.022H255.443Z" fill="#E0E0E0"/>
<path d="M288.953 150.766C288.955 151.562 288.72 152.341 288.279 153.004C287.838 153.667 287.21 154.185 286.475 154.491C285.74 154.797 284.93 154.878 284.149 154.724C283.367 154.569 282.649 154.187 282.085 153.624C281.522 153.062 281.137 152.345 280.981 151.564C280.825 150.783 280.904 149.973 281.209 149.237C281.513 148.501 282.029 147.872 282.691 147.429C283.353 146.987 284.132 146.75 284.928 146.75C285.994 146.75 287.016 147.173 287.771 147.926C288.525 148.679 288.95 149.7 288.953 150.766V150.766Z" fill="#E0E0E0"/>
<path d="M302.684 184.171C302.684 184.171 302.684 184.087 302.684 183.947C302.684 183.806 302.684 183.582 302.684 183.32C302.684 182.739 302.684 181.925 302.684 180.886C302.684 178.733 302.684 175.635 302.628 171.695C302.628 163.795 302.562 152.544 302.515 139.038L302.74 139.262H255.51C255.444 139.318 256.006 138.766 255.772 139.009V145.122C255.772 147.143 255.772 149.156 255.772 151.14V162.793C255.772 170.375 255.772 177.535 255.772 184.125L255.538 183.891L289.692 184.003L299.324 184.068H301.879H302.544H302.778H302.572H301.935H299.427L289.842 184.134L255.538 184.246H255.304V184.012C255.304 177.46 255.304 170.262 255.304 162.681C255.304 158.893 255.304 155.009 255.304 151.028V138.86C255.06 139.094 255.622 138.523 255.575 138.579H302.806H303.04V138.813C302.993 152.376 302.955 163.682 302.927 171.62C302.927 175.532 302.88 178.621 302.871 180.755C302.871 181.775 302.871 182.627 302.871 183.142C302.871 183.395 302.871 183.591 302.871 183.75C302.864 183.909 302.798 184.06 302.684 184.171Z" fill="#455A64"/>
<path d="M394.205 207.787H354.641V246.069H394.205V207.787Z" fill="#FFF6F2"/>
<path d="M357.711 242.793L368.653 223.1L377.61 235.689L383.048 228.997L391.135 242.793H357.711Z" fill="#E0E0E0"/>
<path d="M381.42 219.262C381.42 219.817 381.255 220.36 380.946 220.822C380.638 221.284 380.199 221.644 379.686 221.856C379.173 222.069 378.609 222.124 378.064 222.016C377.519 221.908 377.019 221.64 376.626 221.248C376.233 220.855 375.966 220.355 375.858 219.81C375.749 219.265 375.805 218.701 376.017 218.188C376.23 217.674 376.59 217.236 377.052 216.927C377.513 216.619 378.056 216.454 378.612 216.454C379.356 216.454 380.071 216.75 380.597 217.277C381.124 217.803 381.42 218.517 381.42 219.262V219.262Z" fill="#E0E0E0"/>
<path d="M391.136 242.896C391.136 242.896 391.136 242.84 391.136 242.746C391.136 242.653 391.136 242.484 391.136 242.297C391.136 241.885 391.136 241.361 391.136 240.575C391.136 239.059 391.136 236.831 391.136 234.023C391.136 228.407 391.089 220.47 391.052 210.913L391.211 211.072H357.786C357.739 211.072 358.142 210.717 357.973 210.894V219.487C357.973 222.295 357.973 225.044 357.973 227.733C357.973 233.096 357.973 238.16 357.973 242.821L357.814 242.662L381.888 242.84H388.702H390.518H391.145C391.145 242.84 391.098 242.84 391.005 242.84H390.556H388.777L381.991 242.887L357.721 242.971H357.552V242.803C357.552 238.123 357.552 233.078 357.552 227.714V211.016C357.384 211.175 357.786 210.773 357.749 210.819H391.173H391.342V210.979C391.342 220.582 391.276 228.575 391.258 234.191C391.258 236.999 391.258 239.152 391.211 240.659C391.211 241.389 391.211 241.951 391.211 242.353C391.211 242.531 391.211 242.672 391.211 242.784C391.211 242.896 391.145 242.906 391.136 242.896Z" fill="#455A64"/>
<path d="M502.153 320H235.908C228.376 320 222.271 326.106 222.271 333.638V500.461C222.271 507.993 228.376 514.098 235.908 514.098H502.153C509.685 514.098 515.791 507.993 515.791 500.461V333.638C515.791 326.106 509.685 320 502.153 320Z" fill="#263238"/>
<path d="M210 499.749H528.006V500.077C528.006 504.496 526.251 508.733 523.126 511.858C520.002 514.982 515.764 516.738 511.345 516.738H226.661C222.242 516.738 218.004 514.982 214.88 511.858C211.755 508.733 210 504.496 210 500.077V499.749V499.749Z" fill="#263238"/>
<path d="M507.096 327.713H230.152V491.625H507.096V327.713Z" fill="#E0E0E0"/>
<path d="M340.095 499.749L344.045 506.03H399.568L403.237 499.749H340.095Z" fill="#455A64"/>
<path d="M494.366 338.636H239.391V491.569H494.366V338.636Z" fill="#FAFAFA"/>
<path d="M250.276 346.17C250.278 346.595 250.154 347.01 249.919 347.364C249.685 347.718 249.351 347.994 248.959 348.157C248.568 348.321 248.137 348.365 247.72 348.283C247.304 348.202 246.921 347.998 246.62 347.699C246.32 347.399 246.115 347.017 246.031 346.601C245.948 346.185 245.99 345.754 246.152 345.362C246.313 344.97 246.588 344.634 246.941 344.398C247.294 344.162 247.708 344.036 248.133 344.036C248.7 344.036 249.243 344.261 249.645 344.661C250.047 345.061 250.274 345.604 250.276 346.17V346.17Z" fill="#455A64"/>
<path d="M259 346.17C259.002 346.595 258.877 347.011 258.642 347.365C258.408 347.719 258.073 347.995 257.681 348.158C257.289 348.322 256.857 348.365 256.44 348.283C256.024 348.2 255.641 347.996 255.341 347.695C255.04 347.395 254.836 347.012 254.754 346.596C254.671 346.179 254.714 345.747 254.878 345.355C255.041 344.963 255.317 344.629 255.671 344.394C256.025 344.159 256.441 344.035 256.866 344.036C257.432 344.036 257.974 344.261 258.375 344.661C258.775 345.062 259 345.604 259 346.17V346.17Z" fill="#455A64"/>
<path d="M267.732 346.17C267.734 346.595 267.61 347.01 267.375 347.364C267.141 347.718 266.807 347.994 266.415 348.157C266.024 348.321 265.593 348.365 265.176 348.283C264.76 348.202 264.377 347.998 264.076 347.699C263.776 347.399 263.571 347.018 263.487 346.601C263.404 346.185 263.446 345.754 263.608 345.362C263.77 344.97 264.044 344.634 264.397 344.398C264.75 344.162 265.164 344.036 265.589 344.036C265.87 344.035 266.148 344.089 266.408 344.196C266.668 344.303 266.905 344.46 267.104 344.658C267.303 344.856 267.461 345.092 267.569 345.352C267.677 345.611 267.732 345.889 267.732 346.17V346.17Z" fill="#455A64"/>
<path d="M494.366 355.53C494.366 355.671 437.27 355.774 366.883 355.774C296.496 355.774 239.391 355.671 239.391 355.53C239.391 355.39 296.487 355.287 366.883 355.287C437.28 355.287 494.366 355.399 494.366 355.53Z" fill="#455A64"/>
<path d="M515.791 499.88H222.271V500.817H515.791V499.88Z" fill="#455A64"/>
<path d="M316.058 429.84H260.291V433.574H316.058V429.84Z" fill="#455A64"/>
<path d="M388.093 378.041H332.326V381.776H388.093V378.041Z" fill="#455A64"/>
<path d="M471.041 391.941C471.041 392.072 439.985 392.184 401.684 392.184C363.383 392.184 332.326 392.072 332.326 391.941C332.326 391.81 363.373 391.688 401.684 391.688C439.994 391.688 471.041 391.801 471.041 391.941Z" fill="#455A64"/>
<path d="M471.041 400.084C471.041 400.215 439.985 400.328 401.684 400.328C363.383 400.328 332.326 400.215 332.326 400.084C332.326 399.953 363.373 399.841 401.684 399.841C439.994 399.841 471.041 399.981 471.041 400.084Z" fill="#455A64"/>
<path d="M471.041 408.227C471.041 408.368 439.985 408.471 401.684 408.471C363.383 408.471 332.326 408.368 332.326 408.227C332.326 408.087 363.373 407.984 401.684 407.984C439.994 407.984 471.041 408.096 471.041 408.227Z" fill="#455A64"/>
<path d="M471.041 416.38C471.041 416.511 439.985 416.623 401.684 416.623C363.383 416.623 332.326 416.511 332.326 416.38C332.326 416.249 363.373 416.127 401.684 416.127C439.994 416.127 471.041 416.24 471.041 416.38Z" fill="#455A64"/>
<path d="M471.041 424.523C471.041 424.654 439.985 424.767 401.684 424.767C363.383 424.767 332.326 424.654 332.326 424.523C332.326 424.392 363.373 424.28 401.684 424.28C439.994 424.28 471.041 424.383 471.041 424.523Z" fill="#455A64"/>
<path d="M386.474 432.666C386.474 432.797 374.353 432.91 359.405 432.91C344.457 432.91 332.326 432.797 332.326 432.666C332.326 432.535 344.494 432.423 359.405 432.423C374.315 432.423 386.474 432.535 386.474 432.666Z" fill="#455A64"/>
<path d="M470.021 448.475C470.021 448.616 449.607 448.719 424.438 448.719C399.269 448.719 378.854 448.616 378.854 448.475C378.854 448.335 399.259 448.232 424.438 448.232C449.616 448.232 470.021 448.344 470.021 448.475Z" fill="#455A64"/>
<path d="M470.021 457.124C470.021 457.255 449.607 457.367 424.438 457.367C399.269 457.367 378.854 457.255 378.854 457.124C378.854 456.993 399.259 456.881 424.438 456.881C449.616 456.881 470.021 456.993 470.021 457.124Z" fill="#455A64"/>
<path d="M470.021 465.773C470.021 465.904 449.607 466.016 424.438 466.016C399.269 466.016 378.854 465.904 378.854 465.773C378.854 465.642 399.259 465.529 424.438 465.529C449.616 465.529 470.021 465.632 470.021 465.773Z" fill="#455A64"/>
<path d="M470.021 474.421C470.021 474.552 449.607 474.665 424.438 474.665C399.269 474.665 378.854 474.552 378.854 474.421C378.854 474.29 399.259 474.178 424.438 474.178C449.616 474.178 470.021 474.281 470.021 474.421Z" fill="#455A64"/>
<path d="M316.198 447.652C316.198 447.783 304.03 447.895 289.054 447.895C274.078 447.895 261.91 447.783 261.91 447.652C261.91 447.521 274.078 447.408 289.054 447.408C304.03 447.408 316.198 447.511 316.198 447.652Z" fill="#455A64"/>
<path d="M316.198 454.438C316.198 454.578 304.03 454.681 289.054 454.681C274.078 454.681 261.91 454.578 261.91 454.438C261.91 454.297 274.078 454.194 289.054 454.194C304.03 454.194 316.198 454.269 316.198 454.438Z" fill="#455A64"/>
<path d="M316.198 461.233C316.198 461.364 304.03 461.476 289.054 461.476C274.078 461.476 261.91 461.364 261.91 461.233C261.91 461.102 274.078 460.99 289.054 460.99C304.03 460.99 316.198 461.102 316.198 461.233Z" fill="#455A64"/>
<path d="M316.198 468.019C316.198 468.159 304.03 468.262 289.054 468.262C274.078 468.262 261.91 468.159 261.91 468.019C261.91 467.879 274.078 467.776 289.054 467.776C304.03 467.776 316.198 467.888 316.198 468.019Z" fill="#455A64"/>
<path d="M316.198 474.861C316.198 474.992 304.03 475.105 289.054 475.105C274.078 475.105 261.91 474.992 261.91 474.861C261.91 474.73 274.078 474.618 289.054 474.618C304.03 474.618 316.198 474.683 316.198 474.861Z" fill="#455A64"/>
<path d="M316.198 365.855H260.291V419.946H316.198V365.855Z" fill="#E0E0E0"/>
<path d="M264.625 415.313L280.097 387.476L292.742 405.27L300.436 395.825L311.865 415.313H264.625Z" fill="#FFF6F2"/>
<path d="M298.134 382.066C298.134 382.862 297.898 383.64 297.455 384.302C297.013 384.964 296.384 385.48 295.649 385.784C294.914 386.089 294.104 386.169 293.324 386.014C292.543 385.858 291.826 385.475 291.263 384.912C290.7 384.349 290.317 383.632 290.161 382.851C290.006 382.071 290.086 381.261 290.39 380.526C290.695 379.79 291.211 379.162 291.873 378.72C292.535 378.277 293.313 378.041 294.109 378.041C295.176 378.041 296.2 378.465 296.955 379.22C297.71 379.975 298.134 380.999 298.134 382.066V382.066Z" fill="#FFF6F2"/>
<path d="M311.865 415.463C311.861 415.391 311.861 415.319 311.865 415.247C311.865 415.079 311.865 414.873 311.865 414.611C311.865 414.04 311.865 413.226 311.865 412.177C311.865 410.034 311.865 406.936 311.799 402.995C311.799 395.095 311.734 383.845 311.687 370.329L311.912 370.563H264.681C264.615 370.619 265.177 370.057 264.943 370.301V382.469C264.943 386.437 264.943 390.331 264.943 394.122C264.943 401.694 264.943 408.854 264.943 415.444L264.709 415.219L298.864 415.332L308.504 415.397H311.06H311.949C311.949 415.397 311.883 415.397 311.743 415.397H311.107H308.598L299.013 415.463L264.709 415.575H264.484V415.341C264.484 408.789 264.484 401.591 264.484 394.019C264.484 390.228 264.484 386.334 264.484 382.366V370.198L264.756 369.926H311.986H312.22V370.151C312.22 383.723 312.127 395.02 312.099 402.958C312.099 406.88 312.099 409.959 312.043 412.093C312.043 413.123 312.043 413.918 312.043 414.489C312.043 414.742 312.043 414.939 312.043 415.088C312.043 415.238 311.874 415.472 311.865 415.463Z" fill="#455A64"/>
<path d="M371.853 444.348H332.288V482.63H371.853V444.348Z" fill="#E0E0E0"/>
<path d="M335.358 479.354L346.3 459.661L355.258 472.25L360.696 465.557L368.792 479.354H335.358Z" fill="#FFF6F2"/>
<path d="M359.067 455.823C359.067 456.378 358.902 456.921 358.594 457.383C358.285 457.845 357.847 458.205 357.334 458.417C356.821 458.63 356.256 458.685 355.711 458.577C355.167 458.469 354.666 458.201 354.274 457.808C353.881 457.416 353.613 456.915 353.505 456.371C353.397 455.826 353.452 455.261 353.665 454.748C353.877 454.235 354.237 453.797 354.699 453.488C355.161 453.18 355.704 453.015 356.259 453.015C357.004 453.015 357.718 453.311 358.245 453.837C358.771 454.364 359.067 455.078 359.067 455.823Z" fill="#FFF6F2"/>
<path d="M368.792 479.466C368.789 479.413 368.789 479.36 368.792 479.307C368.792 479.195 368.792 479.045 368.792 478.858C368.792 478.455 368.792 477.922 368.792 477.136C368.792 475.619 368.792 473.392 368.745 470.63C368.745 465.014 368.746 457.077 368.671 447.521L368.83 447.68H335.396C335.396 447.68 335.751 447.324 335.583 447.502V464.35C335.583 469.713 335.583 474.777 335.583 479.448L335.415 479.279L359.591 479.363L366.405 479.41H368.212H366.434H359.657L335.377 479.494H335.218V479.335C335.218 474.655 335.218 469.601 335.218 464.238C335.218 461.561 335.218 458.799 335.218 455.991V447.418C335.049 447.577 335.443 447.174 335.405 447.221H368.839H368.998V447.38C368.998 456.984 368.933 464.977 368.914 470.602C368.914 473.41 368.914 475.554 368.914 477.061C368.914 477.791 368.914 478.352 368.914 478.755C368.914 478.933 368.914 479.073 368.914 479.185C368.892 479.286 368.851 479.381 368.792 479.466Z" fill="#455A64"/>
<path d="M622.768 462.8L613.408 461.686L611.208 479.227L624.902 480.996L625.108 479.919C625.987 475.108 629.217 455.415 628.636 452.055C627.99 448.311 622.768 462.8 622.768 462.8Z" fill="#FFF6F2"/>
<path d="M627.823 450.801C627.991 450.801 627.345 457.409 626.381 465.505C625.417 473.602 624.509 480.154 624.341 480.135C624.172 480.116 624.828 473.583 625.782 465.43C626.737 457.278 627.654 450.782 627.823 450.801Z" fill="#263238"/>
<path d="M624.715 461.976C624.621 462.107 624.134 461.92 623.685 461.49C623.236 461.059 623.049 460.554 623.18 460.469C623.311 460.385 623.704 460.657 624.116 461.059C624.528 461.462 624.818 461.864 624.715 461.976Z" fill="#263238"/>
<path d="M625.464 460.928C625.389 461.078 624.836 460.928 624.294 460.516C623.751 460.104 623.451 459.58 623.573 459.487C623.695 459.393 624.153 459.646 624.659 460.029C625.164 460.413 625.548 460.778 625.464 460.928Z" fill="#263238"/>
<path d="M624.911 474.837C624.911 474.912 624.677 475.146 624.209 475.483C623.614 475.888 623.06 476.348 622.552 476.859C622.073 477.366 621.726 477.983 621.541 478.656C621.41 479.18 621.448 479.526 621.354 479.545C621.261 479.564 621.092 479.217 621.12 478.609C621.186 477.811 621.515 477.057 622.056 476.466C622.592 475.907 623.227 475.453 623.928 475.127C624.518 474.865 624.864 474.762 624.911 474.837Z" fill="#263238"/>
<path d="M622.965 461.714C623.115 461.649 623.414 461.995 623.526 462.51C623.639 463.025 623.526 463.446 623.358 463.446C623.189 463.446 623.04 463.071 622.937 462.613C622.834 462.154 622.806 461.78 622.965 461.714Z" fill="#263238"/>
<path d="M622.029 461.864C622.188 461.864 622.272 462.351 622.216 462.95C622.16 463.549 621.963 463.998 621.804 463.961C621.645 463.923 621.551 463.446 621.617 462.884C621.682 462.323 621.86 461.864 622.029 461.864Z" fill="#263238"/>
<path d="M617.058 480.621L565.176 475.361L457.592 477.767L486.196 454.704L557.997 451.259L620.774 459.908L617.058 480.621Z" fill="#263238"/>
<path d="M529.365 466.216C529.365 466.357 519.265 466.46 506.807 466.46C494.349 466.46 484.259 466.357 484.259 466.216C484.259 466.076 494.349 465.973 506.807 465.973C519.265 465.973 529.365 466.085 529.365 466.216Z" fill="#455A64"/>
<path d="M524.348 452.869L528.035 476.073H535.112L529.73 452.616L524.348 452.869Z" fill="black"/>
<path d="M551.735 476.381L550.687 467.021L533.1 468.893L534.457 482.596H535.552C540.438 482.353 560.347 481.024 563.482 479.695C567.02 478.169 551.735 476.381 551.735 476.381Z" fill="#FFF6F2"/>
<path d="M563.847 478.712C563.847 478.88 557.295 479.751 549.199 480.659C541.102 481.567 534.513 482.166 534.494 481.997C534.475 481.829 541.046 480.968 549.133 480.06C557.22 479.152 563.828 478.581 563.847 478.712Z" fill="#263238"/>
<path d="M552.241 478.263C552.082 478.197 552.157 477.682 552.475 477.149C552.793 476.615 553.233 476.316 553.355 476.419C553.476 476.522 553.289 476.971 552.999 477.458C552.709 477.944 552.409 478.328 552.241 478.263Z" fill="#263238"/>
<path d="M553.448 478.712C553.289 478.712 553.308 478.104 553.588 477.476C553.869 476.849 554.281 476.456 554.421 476.54C554.562 476.625 554.421 477.13 554.141 477.71C553.86 478.291 553.607 478.796 553.448 478.712Z" fill="#263238"/>
<path d="M539.773 481.37C539.716 481.426 539.417 481.211 538.986 480.837C538.457 480.351 537.884 479.915 537.273 479.536C536.669 479.184 535.988 478.988 535.289 478.965C534.756 478.965 534.419 479.068 534.353 478.965C534.288 478.862 534.606 478.637 535.224 478.525C536.028 478.411 536.847 478.576 537.545 478.993C538.21 479.392 538.794 479.913 539.267 480.528C539.66 481.005 539.838 481.314 539.773 481.37Z" fill="#263238"/>
<path d="M552.109 476.494C552.212 476.625 551.941 476.99 551.463 477.224C550.986 477.458 550.527 477.439 550.527 477.28C550.527 477.121 550.818 476.887 551.239 476.681C551.66 476.475 552.016 476.353 552.109 476.494Z" fill="#263238"/>
<path d="M551.735 475.614C551.735 475.782 551.314 475.97 550.725 476.044C550.135 476.119 549.648 476.044 549.639 475.876C549.629 475.707 550.088 475.52 550.65 475.445C551.211 475.37 551.698 475.455 551.735 475.614Z" fill="#263238"/>
<path d="M448.831 369.312L463.807 369.041C464.013 367.309 464.304 360.561 464.304 360.561C464.304 360.561 470.575 359.971 471.033 353.775C471.492 347.578 471.295 333.239 471.295 333.239C467.859 331.504 464.021 330.718 460.179 330.961C456.337 331.205 452.63 332.469 449.44 334.624L448.504 335.279L448.831 369.312Z" fill="#B78876"/>
<path d="M469.227 343.825C469.064 343.651 468.973 343.422 468.973 343.184C468.973 342.946 469.064 342.716 469.227 342.543C469.355 342.406 469.522 342.311 469.705 342.27C469.888 342.229 470.079 342.245 470.253 342.314C470.428 342.383 470.577 342.503 470.683 342.658C470.788 342.813 470.845 342.996 470.845 343.184C470.845 343.371 470.788 343.555 470.683 343.71C470.577 343.865 470.428 343.985 470.253 344.054C470.079 344.123 469.888 344.138 469.705 344.097C469.522 344.057 469.355 343.962 469.227 343.825Z" fill="#263238"/>
<path d="M470.809 342.496C470.706 342.599 470.126 342.093 469.274 342.037C468.422 341.981 467.767 342.384 467.683 342.271C467.598 342.159 467.748 342.028 468.029 341.841C468.411 341.6 468.861 341.489 469.311 341.522C469.76 341.55 470.187 341.725 470.528 342.019C470.809 342.252 470.874 342.449 470.809 342.496Z" fill="#263238"/>
<path d="M460.924 342.636C461.058 342.795 461.136 342.993 461.145 343.201C461.153 343.408 461.093 343.613 460.973 343.782C460.853 343.951 460.68 344.076 460.481 344.136C460.283 344.197 460.07 344.189 459.876 344.115C459.742 344.064 459.622 343.984 459.525 343.879C459.428 343.775 459.355 343.649 459.314 343.513C459.272 343.376 459.263 343.232 459.286 343.091C459.308 342.95 459.363 342.816 459.446 342.699C459.528 342.583 459.637 342.487 459.762 342.419C459.887 342.35 460.027 342.312 460.17 342.306C460.312 342.299 460.454 342.326 460.585 342.383C460.716 342.441 460.832 342.527 460.924 342.636Z" fill="#263238"/>
<path d="M461.449 342.674C461.346 342.777 460.765 342.271 459.904 342.215C459.043 342.159 458.407 342.561 458.313 342.449C458.219 342.337 458.378 342.206 458.669 342.019C459.05 341.778 459.499 341.666 459.949 341.7C460.399 341.734 460.826 341.911 461.168 342.206C461.449 342.43 461.533 342.636 461.449 342.674Z" fill="#263238"/>
<path d="M464.481 349.947C464.931 349.799 465.403 349.729 465.876 349.741C466.101 349.741 466.288 349.684 466.307 349.572C466.329 349.347 466.287 349.119 466.185 348.917L465.614 347.139C465.065 345.622 464.669 344.054 464.435 342.458C465.138 343.905 465.69 345.42 466.082 346.979C466.269 347.597 466.438 348.187 466.615 348.767C466.743 349.063 466.766 349.393 466.681 349.703C466.642 349.787 466.585 349.861 466.514 349.919C466.442 349.977 466.359 350.019 466.269 350.04C466.142 350.057 466.013 350.057 465.885 350.04C465.415 350.087 464.941 350.055 464.481 349.947V349.947Z" fill="#263238"/>
<path d="M461.645 350.723C460.784 350.134 464.013 352.174 465.764 352.193C465.444 352.625 464.989 352.936 464.471 353.077C463.953 353.218 463.403 353.18 462.909 352.97C461.093 352.174 461.645 350.723 461.645 350.723Z" fill="white"/>
<path d="M464.341 360.467C461.469 360.341 458.7 359.364 456.385 357.659C456.385 357.659 458.023 362.246 464.257 362.068L464.341 360.467Z" fill="#A36957"/>
<path d="M471.744 331.002C472.1 330.99 472.449 330.897 472.763 330.729C473.077 330.562 473.349 330.324 473.557 330.036C473.766 329.747 473.905 329.414 473.965 329.063C474.024 328.712 474.003 328.351 473.901 328.01C473.8 327.668 473.622 327.355 473.381 327.093C473.139 326.831 472.841 326.628 472.509 326.499C472.177 326.371 471.819 326.32 471.465 326.351C471.11 326.382 470.767 326.493 470.462 326.678C471.206 326.065 471.812 325.303 472.24 324.441C472.446 324.007 472.515 323.521 472.436 323.047C472.357 322.573 472.136 322.135 471.8 321.792C471.41 321.523 470.954 321.366 470.48 321.336C470.007 321.307 469.535 321.406 469.114 321.623C467.794 322.194 466.755 323.308 465.37 323.776C463.985 324.244 462.506 324.01 461.055 324.075C459.438 324.106 457.872 324.647 456.581 325.62C455.946 326.111 455.434 326.745 455.088 327.47C454.742 328.195 454.57 328.991 454.587 329.794C452.556 329.551 450.31 329.523 448.709 330.787C448.065 331.36 447.556 332.068 447.218 332.861C446.88 333.654 446.721 334.512 446.753 335.373C446.909 337.093 447.319 338.781 447.97 340.381V340.381C448.083 340.85 448.294 341.29 448.588 341.672L449.346 346.128L452.107 346.071L451.929 336.805C451.929 336.805 451.648 332.893 455.018 333.239C458.388 333.585 462.946 337.376 469.488 336.412C470.558 336.356 471.601 336.058 472.54 335.541C472.995 335.255 473.365 334.853 473.611 334.375C473.858 333.898 473.973 333.364 473.944 332.827C473.887 332.296 473.625 331.809 473.215 331.468C472.804 331.127 472.276 330.96 471.744 331.002V331.002Z" fill="#263238"/>
<path d="M449.692 340.783C449.552 340.736 445.077 340.156 445.499 345.463C445.92 350.77 451.115 348.571 451.115 348.421C451.115 348.271 449.692 340.783 449.692 340.783Z" fill="#B78876"/>
<path d="M449.356 346.671C449.356 346.671 449.262 346.736 449.112 346.82C448.902 346.931 448.658 346.958 448.429 346.895C448.072 346.706 447.771 346.425 447.557 346.081C447.344 345.737 447.225 345.343 447.212 344.939C447.159 344.487 447.211 344.029 447.362 343.601C447.398 343.43 447.474 343.272 447.585 343.138C447.696 343.004 447.838 342.899 447.999 342.833C448.103 342.797 448.216 342.799 448.318 342.838C448.421 342.878 448.507 342.952 448.56 343.048C448.644 343.189 448.616 343.292 448.644 343.301C448.672 343.31 448.757 343.207 448.691 342.992C448.655 342.861 448.572 342.747 448.457 342.674C448.382 342.625 448.298 342.591 448.209 342.575C448.121 342.559 448.03 342.561 447.942 342.58C447.718 342.641 447.514 342.759 447.35 342.923C447.185 343.088 447.067 343.292 447.006 343.516C446.815 343.991 446.747 344.506 446.81 345.014C446.82 345.485 446.969 345.943 447.239 346.329C447.509 346.716 447.887 347.014 448.326 347.185C448.472 347.216 448.622 347.214 448.766 347.178C448.911 347.142 449.045 347.075 449.159 346.979C449.356 346.792 449.374 346.68 449.356 346.671Z" fill="#A36957"/>
<path d="M436.682 461.864C439.49 466.048 456.515 491.676 476.845 473.04C502.745 449.322 523.224 428.542 523.224 428.542L530.918 475.483L555.03 474.172C555.03 474.172 545.67 404.281 539.698 397.926C533.062 390.831 526.959 391.43 474.842 432.558L436.682 461.864Z" fill="#455A64"/>
<path d="M522.925 382.266L545.445 365.83L546.549 367.599L524.179 384.232L522.925 382.266Z" fill="#263238"/>
<path d="M528.494 381.761C528.494 381.761 531.508 373.899 532.238 372.223C532.968 370.548 534.063 367.628 534.494 367.543C534.924 367.459 536.497 367.731 534.494 372.729C532.491 377.727 536.928 374.676 536.928 374.676L541.261 371.568C541.261 371.568 544.687 381.808 542.74 384.897C541.209 387.203 539.491 389.379 537.601 391.402L528.494 381.761Z" fill="#B78876"/>
<path d="M528.747 380.844C528.298 379.824 499.656 405.114 493.956 405.976L477.257 384.232C477.257 384.232 473.794 378.729 466.353 369.312C461.542 363.238 448.288 364.501 444.825 371.905C438.91 384.485 438.835 398.469 435.68 425.678L434.304 444.08C434.008 447.996 434.067 451.931 434.482 455.836C434.988 460.395 436.017 465.196 438.133 464.513L476.331 432.942L477.557 418.602C485.588 426.745 488.087 428.449 492.262 427.794C502.773 426.165 539.567 393.078 539.567 393.078C539.567 393.078 529.187 381.874 528.747 380.844Z" fill="#FFF6F2"/>
<path d="M534.635 397.673C533.889 397.225 533.201 396.687 532.585 396.073C531.02 394.675 529.553 393.171 528.195 391.57C526.829 389.977 525.578 388.288 524.451 386.516C523.95 385.802 523.526 385.036 523.188 384.232C523.754 384.888 524.271 385.586 524.732 386.319C525.668 387.621 526.978 389.399 528.56 391.252C530.142 393.105 531.677 394.697 532.819 395.82C533.467 396.394 534.074 397.014 534.635 397.673V397.673Z" fill="#263238"/>
<path d="M492.336 414.596C492.351 413.131 492.527 411.671 492.86 410.244C493.044 408.789 493.382 407.358 493.871 405.976C493.856 407.441 493.681 408.901 493.347 410.328C493.165 411.783 492.826 413.214 492.336 414.596V414.596Z" fill="#263238"/>
<path d="M495.987 413.698C495.408 412.507 494.981 411.25 494.714 409.954C494.3 408.7 494.033 407.403 493.918 406.088C494.496 407.278 494.924 408.536 495.191 409.832C495.603 411.086 495.87 412.383 495.987 413.698V413.698Z" fill="#263238"/>
<path d="M454.635 388.051C454.977 388.429 455.29 388.832 455.571 389.258L458.061 392.647C460.167 395.502 463.106 399.433 466.391 403.729L474.862 414.718L477.417 418.059C477.763 418.454 478.076 418.877 478.353 419.323C477.977 418.966 477.63 418.582 477.314 418.171C476.668 417.413 475.76 416.299 474.637 414.933C472.4 412.172 469.339 408.334 466.054 404.029C462.769 399.723 459.867 395.754 457.836 392.843C456.816 391.393 455.964 390.204 455.458 389.371C455.149 388.954 454.873 388.512 454.635 388.051Z" fill="#263238"/>
<path d="M449.749 406.546C448.759 405.985 447.854 405.286 447.062 404.468C446.163 403.765 445.366 402.94 444.694 402.016C445.69 402.577 446.598 403.28 447.39 404.103C448.292 404.798 449.087 405.621 449.749 406.546V406.546Z" fill="#263238"/>
<path d="M446.473 417.095C445.496 419.118 444.235 420.99 442.729 422.655C443.14 421.604 443.705 420.62 444.404 419.735C444.964 418.761 445.66 417.872 446.473 417.095V417.095Z" fill="#263238"/>
<path d="M451.078 431.65C450.975 431.734 450.142 430.892 449.206 429.778C448.575 429.143 448.062 428.402 447.689 427.588C447.792 427.503 448.625 428.346 449.561 429.46C450.194 430.093 450.707 430.835 451.078 431.65V431.65Z" fill="#263238"/>
<path d="M442.167 440.982C441.576 441.674 440.866 442.254 440.07 442.695C439.364 443.267 438.562 443.711 437.702 444.005C438.293 443.313 439.003 442.733 439.799 442.292C440.505 441.72 441.307 441.276 442.167 440.982V440.982Z" fill="#263238"/>
<path d="M454.625 443.453C453.633 443.02 452.774 442.333 452.135 441.459C451.376 440.678 450.836 439.709 450.572 438.651C450.703 438.586 451.387 439.821 452.5 441.122C453.614 442.423 454.709 443.331 454.625 443.453Z" fill="#263238"/>
<path d="M466.24 434.636C465.556 435.531 464.75 436.325 463.844 436.994C463.038 437.782 462.124 438.45 461.13 438.979C461.813 438.084 462.62 437.289 463.526 436.62C464.33 435.831 465.244 435.162 466.24 434.636V434.636Z" fill="#263238"/>
<path d="M442.336 451.662C440.736 450.928 439.466 449.627 438.77 448.011C438.882 447.936 439.584 448.835 440.567 449.827C441.549 450.819 442.42 451.568 442.336 451.662Z" fill="#263238"/>
<path d="M468.309 426.296C466.701 427.216 464.847 427.615 463.002 427.438C464.751 426.97 466.522 426.589 468.309 426.296V426.296Z" fill="#263238"/>
<path d="M459.66 416.459C459.467 417.599 459.153 418.716 458.724 419.791C458.419 420.871 458.054 421.934 457.629 422.973H457.526C457.526 422.917 457.582 422.898 457.601 422.898C457.62 422.898 457.601 422.898 457.601 423.001H457.498C457.608 421.878 457.853 420.772 458.228 419.707C458.514 418.549 458.998 417.45 459.66 416.459V416.459Z" fill="#263238"/>
<path d="M463.321 410.216C462.305 409.791 461.358 409.217 460.513 408.512C459.584 407.939 458.748 407.229 458.032 406.406C459.029 406.839 459.959 407.413 460.793 408.11C461.737 408.681 462.588 409.391 463.321 410.216V410.216Z" fill="#263238"/>
<path d="M455.832 396.456C455.549 397.385 455.078 398.245 454.447 398.984C453.94 399.811 453.272 400.527 452.481 401.09C452.901 400.227 453.429 399.421 454.054 398.693C454.543 397.871 455.141 397.118 455.832 396.456Z" fill="#263238"/>
<path d="M444.432 394.584C444.275 393.533 444.275 392.463 444.432 391.411C444.444 390.35 444.614 389.296 444.937 388.285C445.106 389.333 445.106 390.401 444.937 391.449C444.935 392.514 444.764 393.572 444.432 394.584V394.584Z" fill="#263238"/>
<path d="M439.986 415.214C439.732 414.094 439.631 412.944 439.686 411.797C439.591 410.655 439.654 409.506 439.874 408.381C440.236 410.642 440.273 412.942 439.986 415.214Z" fill="#263238"/>
<path d="M439.368 435.001C438.943 434.394 438.659 433.7 438.535 432.97C438.258 432.284 438.131 431.547 438.16 430.808C438.875 432.096 439.288 433.53 439.368 435.001V435.001Z" fill="#263238"/>
<path d="M455.13 379.15C454.387 380.003 453.58 380.797 452.715 381.527C451.967 382.376 451.15 383.162 450.272 383.876C450.781 382.842 451.498 381.925 452.378 381.181C453.143 380.318 454.081 379.626 455.13 379.15V379.15Z" fill="#263238"/>
<path d="M448.438 376.913C448.235 375.893 448.197 374.847 448.325 373.815C448.287 372.775 448.414 371.736 448.7 370.735C448.897 371.756 448.935 372.801 448.812 373.833C448.844 374.873 448.718 375.911 448.438 376.913V376.913Z" fill="#263238"/>
<path d="M464.837 374.685C463.078 373.621 461.378 372.462 459.745 371.212C461.715 371.908 463.47 373.105 464.837 374.685Z" fill="#263238"/>
<path d="M461.271 386.366C461.011 385.295 460.907 384.191 460.962 383.09C460.861 381.992 460.921 380.886 461.139 379.805C461.506 381.97 461.551 384.178 461.271 386.357V386.366Z" fill="#263238"/>
<path d="M470.874 393.199C468.985 392.823 467.112 392.373 465.258 391.851C467.222 391.732 469.178 392.201 470.874 393.199V393.199Z" fill="#263238"/>
<path d="M471.529 386.235C471.199 384.412 471.199 382.545 471.529 380.722C471.775 381.617 471.867 382.548 471.801 383.474C471.874 384.403 471.782 385.338 471.529 386.235V386.235Z" fill="#263238"/>
<path d="M478.848 397.926C478.55 396.793 478.414 395.624 478.446 394.453C478.317 393.291 478.349 392.116 478.539 390.962C478.96 393.258 479.064 395.601 478.848 397.926V397.926Z" fill="#263238"/>
<path d="M473.223 401.876C473.12 401.969 472.362 401.277 471.529 400.341C470.696 399.405 470.097 398.562 470.2 398.469C470.303 398.375 471.061 399.068 471.894 400.013C472.727 400.958 473.326 401.791 473.223 401.876Z" fill="#263238"/>
<path d="M480.337 407.267C479.454 407.568 478.527 407.719 477.594 407.716C476.665 407.879 475.715 407.879 474.786 407.716C475.663 407.405 476.589 407.253 477.519 407.267C478.45 407.093 479.406 407.093 480.337 407.267V407.267Z" fill="#263238"/>
<path d="M485.691 410C485.295 407.969 485.216 405.888 485.457 403.832C485.865 405.862 485.944 407.945 485.691 410Z" fill="#263238"/>
<path d="M490.97 420.249C489.848 420.464 488.695 420.464 487.573 420.249C486.432 420.205 485.31 419.941 484.269 419.473C485.396 419.468 486.52 419.568 487.629 419.772C488.756 419.82 489.875 419.98 490.97 420.249V420.249Z" fill="#263238"/>
<path d="M500.049 415.523C499.663 417.648 498.956 419.703 497.952 421.616C498.062 420.544 498.337 419.496 498.766 418.509C499.034 417.452 499.467 416.444 500.049 415.523V415.523Z" fill="#263238"/>
<path d="M506.592 407.248C504.645 407.044 502.747 406.516 500.976 405.685C502.919 405.901 504.816 406.429 506.592 407.248V407.248Z" fill="#263238"/>
<path d="M511.852 410.384C511.295 411.198 510.609 411.916 509.821 412.509C509.136 413.219 508.343 413.816 507.472 414.278C508.023 413.457 508.71 412.735 509.503 412.144C510.187 411.436 510.98 410.842 511.852 410.384V410.384Z" fill="#263238"/>
<path d="M513.958 402.643C513.44 401.718 513.122 400.695 513.022 399.639C512.754 398.606 512.709 397.527 512.891 396.475C513.189 397.48 513.393 398.511 513.5 399.555C513.749 400.567 513.902 401.602 513.958 402.643V402.643Z" fill="#263238"/>
<path d="M523.973 400.865C522.048 402.787 520.101 404.687 518.133 406.565C519.62 404.245 521.617 402.295 523.973 400.865V400.865Z" fill="#263238"/>
<path d="M524.966 397.28C523.891 397.128 522.846 396.813 521.868 396.344C520.829 396.039 519.844 395.575 518.947 394.968C520.018 395.124 521.059 395.439 522.036 395.904C523.075 396.215 524.063 396.679 524.966 397.28Z" fill="#263238"/>
<path d="M524.01 393.433C523.534 392.656 523.201 391.8 523.027 390.906C522.7 390.054 522.526 389.151 522.513 388.238C522.972 389.018 523.289 389.874 523.449 390.765C523.787 391.616 523.977 392.518 524.01 393.433Z" fill="#263238"/>
<path d="M471.614 420.399C471.501 420.483 470.678 419.557 469.854 418.34C469.261 417.649 468.798 416.856 468.487 416C469.192 416.576 469.788 417.273 470.247 418.059C470.832 418.756 471.294 419.547 471.614 420.399V420.399Z" fill="#263238"/>
<path d="M542.974 467.555C542.935 467.424 542.91 467.289 542.9 467.152C542.862 466.872 542.806 466.478 542.731 465.973C542.6 464.915 542.394 463.39 542.141 461.443C541.608 457.511 540.85 451.811 539.717 444.801C538.585 437.79 537.078 429.469 534.934 420.334C534.715 419.187 534.34 418.075 533.82 417.03C533.232 415.998 532.472 415.073 531.574 414.296C529.667 412.718 527.23 411.928 524.76 412.087C523.5 412.157 522.269 412.492 521.147 413.07C520.02 413.706 518.946 414.432 517.936 415.242L511.497 420.025C502.829 426.53 494.714 432.904 487.47 438.885C480.225 444.866 473.907 450.463 468.619 455.209C465.942 457.512 463.087 459.355 460.195 459.655C458.868 459.805 457.525 459.642 456.273 459.178C455.231 458.785 454.251 458.246 453.362 457.577C452.145 456.651 451.017 455.614 449.992 454.479L449.197 453.599C449.1 453.501 449.012 453.395 448.935 453.281C449.042 453.362 449.14 453.457 449.225 453.562L450.058 454.413C451.111 455.511 452.254 456.519 453.474 457.427C454.359 458.065 455.325 458.582 456.348 458.962C457.571 459.397 458.878 459.541 460.167 459.384C462.975 459.075 465.783 457.249 468.403 454.947C473.654 450.183 479.954 444.52 487.198 438.539C494.443 432.558 502.539 426.137 511.216 419.632L517.656 414.849C518.69 414.025 519.788 413.286 520.941 412.64C522.12 412.031 523.416 411.68 524.741 411.61C527.332 411.446 529.887 412.28 531.883 413.941C532.828 414.753 533.624 415.726 534.232 416.814C534.768 417.896 535.156 419.045 535.384 420.231C537.508 429.394 538.968 437.734 540.064 444.744C541.159 451.755 541.861 457.474 542.338 461.415C542.553 463.371 542.722 464.897 542.843 465.964C542.843 466.469 542.928 466.9 542.956 467.152C542.975 467.286 542.981 467.42 542.974 467.555V467.555Z" fill="#263238"/>
<path d="M553.906 467.031C553.603 467.124 553.288 467.175 552.97 467.18C552.362 467.246 551.482 467.321 550.396 467.396C548.215 467.546 545.211 467.705 541.888 467.845L533.38 468.21L530.796 468.304C530.485 468.34 530.171 468.34 529.86 468.304C530.163 468.204 530.478 468.147 530.796 468.135C531.405 468.06 532.285 467.976 533.37 467.882C535.551 467.705 538.556 467.527 541.879 467.377L550.396 467.068L552.98 467.012C553.288 466.98 553.599 466.986 553.906 467.031V467.031Z" fill="#263238"/>
<path d="M529.917 421.223C527.786 424.692 525.009 427.72 521.737 430.143C521.643 430.031 523.609 428.205 525.892 425.744C528.176 423.282 529.777 421.139 529.917 421.223Z" fill="#263238"/>
<path d="M530.825 424.068C529.562 425.032 528.229 425.898 526.837 426.661C525.528 427.57 524.151 428.377 522.719 429.076C523.877 427.977 525.173 427.033 526.575 426.268C527.891 425.355 529.319 424.615 530.825 424.068V424.068Z" fill="#263238"/>
<path d="M609.683 469.446C609.493 469.466 609.302 469.466 609.112 469.446L607.465 469.352L601.474 468.781L581.734 466.722C574.021 465.917 567.058 465.018 561.994 464.766C559.467 464.635 557.407 464.644 555.994 464.7L554.365 464.766C554.173 464.79 553.978 464.79 553.785 464.766C553.973 464.719 554.164 464.688 554.356 464.672C554.721 464.616 555.292 464.569 555.985 464.504C557.991 464.372 560.003 464.344 562.013 464.419C567.104 464.588 574.078 465.43 581.781 466.235L601.521 468.416L607.502 469.137L609.121 469.352C609.312 469.361 609.5 469.392 609.683 469.446V469.446Z" fill="#455A64"/>
<path d="M608.494 479.91C608.363 479.91 608.784 475.23 609.43 469.418C610.075 463.605 610.731 458.972 610.862 458.991C610.993 459.009 610.572 463.671 609.926 469.474C609.28 475.277 608.625 479.92 608.494 479.91Z" fill="#455A64"/>
<path d="M578.118 55.325C594.5 74.2881 579.038 120.448 559.312 137.489C539.586 154.531 473.069 149.411 456.687 130.448C440.304 111.485 472.797 51.0084 492.524 33.9667C512.25 16.925 561.735 36.3619 578.118 55.325Z" fill="#F64900" fill-opacity="0.05"/>
<path d="M485.764 71.4633C485.038 71.4633 484.388 71.3353 483.812 71.0793C483.236 70.8127 482.777 70.4553 482.436 70.0073C482.105 69.5593 481.924 69.0633 481.892 68.5193H484.148C484.19 68.8607 484.356 69.1433 484.644 69.3673C484.942 69.5913 485.31 69.7033 485.748 69.7033C486.174 69.7033 486.505 69.618 486.74 69.4473C486.985 69.2767 487.108 69.058 487.108 68.7913C487.108 68.5033 486.958 68.29 486.66 68.1513C486.372 68.002 485.908 67.842 485.268 67.6713C484.606 67.5113 484.062 67.346 483.636 67.1753C483.22 67.0047 482.857 66.7433 482.548 66.3913C482.249 66.0393 482.1 65.5647 482.1 64.9673C482.1 64.4767 482.238 64.0287 482.516 63.6233C482.804 63.218 483.209 62.898 483.732 62.6633C484.265 62.4287 484.889 62.3113 485.604 62.3113C486.66 62.3113 487.502 62.578 488.132 63.1113C488.761 63.634 489.108 64.3433 489.172 65.2393H487.028C486.996 64.8873 486.846 64.61 486.58 64.4073C486.324 64.194 485.977 64.0873 485.54 64.0873C485.134 64.0873 484.82 64.162 484.596 64.3113C484.382 64.4607 484.276 64.6687 484.276 64.9353C484.276 65.234 484.425 65.4633 484.724 65.6233C485.022 65.7727 485.486 65.9273 486.116 66.0873C486.756 66.2473 487.284 66.4127 487.7 66.5833C488.116 66.754 488.473 67.0207 488.772 67.3833C489.081 67.7353 489.241 68.2047 489.252 68.7913C489.252 69.3033 489.108 69.762 488.82 70.1673C488.542 70.5727 488.137 70.8927 487.604 71.1273C487.081 71.3513 486.468 71.4633 485.764 71.4633ZM496.082 62.3273C496.754 62.3273 497.352 62.4767 497.874 62.7753C498.397 63.0633 498.802 63.4953 499.09 64.0713C499.389 64.6367 499.538 65.3193 499.538 66.1193V71.3193H497.298V66.4233C497.298 65.7193 497.122 65.1807 496.77 64.8073C496.418 64.4233 495.938 64.2313 495.33 64.2313C494.712 64.2313 494.221 64.4233 493.858 64.8073C493.506 65.1807 493.33 65.7193 493.33 66.4233V71.3193H491.09V59.4793H493.33V63.5593C493.618 63.1753 494.002 62.8767 494.482 62.6633C494.962 62.4393 495.496 62.3273 496.082 62.3273ZM505.604 71.4633C504.751 71.4633 503.983 71.2767 503.3 70.9033C502.618 70.5193 502.079 69.9807 501.684 69.2873C501.3 68.594 501.108 67.794 501.108 66.8873C501.108 65.9807 501.306 65.1807 501.7 64.4873C502.106 63.794 502.655 63.2607 503.348 62.8873C504.042 62.5033 504.815 62.3113 505.668 62.3113C506.522 62.3113 507.295 62.5033 507.988 62.8873C508.682 63.2607 509.226 63.794 509.62 64.4873C510.026 65.1807 510.228 65.9807 510.228 66.8873C510.228 67.794 510.02 68.594 509.604 69.2873C509.199 69.9807 508.644 70.5193 507.94 70.9033C507.247 71.2767 506.468 71.4633 505.604 71.4633ZM505.604 69.5113C506.01 69.5113 506.388 69.4153 506.74 69.2233C507.103 69.0207 507.391 68.722 507.604 68.3273C507.818 67.9327 507.924 67.4527 507.924 66.8873C507.924 66.0447 507.7 65.3993 507.252 64.9513C506.815 64.4927 506.276 64.2633 505.636 64.2633C504.996 64.2633 504.458 64.4927 504.02 64.9513C503.594 65.3993 503.38 66.0447 503.38 66.8873C503.38 67.73 503.588 68.3807 504.004 68.8393C504.431 69.2873 504.964 69.5113 505.604 69.5113ZM514.112 63.7353C514.4 63.33 514.794 62.994 515.296 62.7273C515.808 62.45 516.389 62.3113 517.04 62.3113C517.797 62.3113 518.48 62.498 519.088 62.8713C519.706 63.2447 520.192 63.778 520.544 64.4713C520.906 65.154 521.088 65.9487 521.088 66.8553C521.088 67.762 520.906 68.5673 520.544 69.2713C520.192 69.9647 519.706 70.5033 519.088 70.8873C518.48 71.2713 517.797 71.4633 517.04 71.4633C516.389 71.4633 515.813 71.33 515.312 71.0633C514.821 70.7967 514.421 70.4607 514.112 70.0553V75.5433H511.872V62.4553H514.112V63.7353ZM518.8 66.8553C518.8 66.322 518.688 65.8633 518.464 65.4793C518.25 65.0847 517.962 64.786 517.6 64.5833C517.248 64.3807 516.864 64.2793 516.448 64.2793C516.042 64.2793 515.658 64.386 515.296 64.5993C514.944 64.802 514.656 65.1007 514.432 65.4953C514.218 65.89 514.112 66.354 514.112 66.8873C514.112 67.4207 514.218 67.8847 514.432 68.2793C514.656 68.674 514.944 68.978 515.296 69.1913C515.658 69.394 516.042 69.4953 516.448 69.4953C516.864 69.4953 517.248 69.3887 517.6 69.1753C517.962 68.962 518.25 68.658 518.464 68.2633C518.688 67.8687 518.8 67.3993 518.8 66.8553ZM530.464 71.4633C529.61 71.4633 528.842 71.2767 528.16 70.9033C527.477 70.5193 526.938 69.9807 526.544 69.2873C526.16 68.594 525.968 67.794 525.968 66.8873C525.968 65.9807 526.165 65.1807 526.56 64.4873C526.965 63.794 527.514 63.2607 528.208 62.8873C528.901 62.5033 529.674 62.3113 530.528 62.3113C531.381 62.3113 532.154 62.5033 532.848 62.8873C533.541 63.2607 534.085 63.794 534.48 64.4873C534.885 65.1807 535.088 65.9807 535.088 66.8873C535.088 67.794 534.88 68.594 534.464 69.2873C534.058 69.9807 533.504 70.5193 532.8 70.9033C532.106 71.2767 531.328 71.4633 530.464 71.4633ZM530.464 69.5113C530.869 69.5113 531.248 69.4153 531.6 69.2233C531.962 69.0207 532.25 68.722 532.464 68.3273C532.677 67.9327 532.784 67.4527 532.784 66.8873C532.784 66.0447 532.56 65.3993 532.112 64.9513C531.674 64.4927 531.136 64.2633 530.496 64.2633C529.856 64.2633 529.317 64.4927 528.88 64.9513C528.453 65.3993 528.24 66.0447 528.24 66.8873C528.24 67.73 528.448 68.3807 528.864 68.8393C529.29 69.2873 529.824 69.5113 530.464 69.5113ZM541.643 62.3273C542.699 62.3273 543.552 62.6633 544.203 63.3353C544.854 63.9967 545.179 64.9247 545.179 66.1193V71.3193H542.939V66.4233C542.939 65.7193 542.763 65.1807 542.411 64.8073C542.059 64.4233 541.579 64.2313 540.971 64.2313C540.352 64.2313 539.862 64.4233 539.499 64.8073C539.147 65.1807 538.971 65.7193 538.971 66.4233V71.3193H536.731V62.4553H538.971V63.5593C539.27 63.1753 539.648 62.8767 540.107 62.6633C540.576 62.4393 541.088 62.3273 541.643 62.3273ZM504.389 90.8553C504.389 89.9593 504.565 89.1647 504.917 88.4713C505.28 87.778 505.765 87.2447 506.373 86.8713C506.992 86.498 507.68 86.3113 508.437 86.3113C509.099 86.3113 509.675 86.4447 510.165 86.7113C510.667 86.978 511.067 87.314 511.365 87.7193V86.4553H513.621V95.3193H511.365V94.0233C511.077 94.4393 510.677 94.786 510.165 95.0633C509.664 95.33 509.083 95.4633 508.421 95.4633C507.675 95.4633 506.992 95.2713 506.373 94.8873C505.765 94.5033 505.28 93.9647 504.917 93.2713C504.565 92.5673 504.389 91.762 504.389 90.8553ZM511.365 90.8873C511.365 90.3433 511.259 89.8793 511.045 89.4953C510.832 89.1007 510.544 88.802 510.181 88.5993C509.819 88.386 509.429 88.2793 509.013 88.2793C508.597 88.2793 508.213 88.3807 507.861 88.5833C507.509 88.786 507.221 89.0847 506.997 89.4793C506.784 89.8633 506.677 90.322 506.677 90.8553C506.677 91.3887 506.784 91.858 506.997 92.2633C507.221 92.658 507.509 92.962 507.861 93.1753C508.224 93.3887 508.608 93.4953 509.013 93.4953C509.429 93.4953 509.819 93.394 510.181 93.1913C510.544 92.978 510.832 92.6793 511.045 92.2953C511.259 91.9007 511.365 91.4313 511.365 90.8873ZM518.049 83.4793V95.3193H515.809V83.4793H518.049ZM522.502 83.4793V95.3193H520.262V83.4793H522.502ZM485.437 111.607C485.437 112.205 485.293 112.765 485.005 113.287C484.728 113.81 484.285 114.231 483.677 114.551C483.08 114.871 482.323 115.031 481.405 115.031H479.533V119.319H477.293V108.151H481.405C482.269 108.151 483.005 108.301 483.613 108.599C484.221 108.898 484.675 109.309 484.973 109.831C485.283 110.354 485.437 110.946 485.437 111.607ZM481.309 113.223C481.928 113.223 482.387 113.085 482.685 112.807C482.984 112.519 483.133 112.119 483.133 111.607C483.133 110.519 482.525 109.975 481.309 109.975H479.533V113.223H481.309ZM489.268 107.479V119.319H487.028V107.479H489.268ZM490.905 114.855C490.905 113.959 491.081 113.165 491.433 112.471C491.796 111.778 492.281 111.245 492.889 110.871C493.508 110.498 494.196 110.311 494.953 110.311C495.614 110.311 496.19 110.445 496.681 110.711C497.182 110.978 497.582 111.314 497.881 111.719V110.455H500.137V119.319H497.881V118.023C497.593 118.439 497.193 118.786 496.681 119.063C496.18 119.33 495.598 119.463 494.937 119.463C494.19 119.463 493.508 119.271 492.889 118.887C492.281 118.503 491.796 117.965 491.433 117.271C491.081 116.567 490.905 115.762 490.905 114.855ZM497.881 114.887C497.881 114.343 497.774 113.879 497.561 113.495C497.348 113.101 497.06 112.802 496.697 112.599C496.334 112.386 495.945 112.279 495.529 112.279C495.113 112.279 494.729 112.381 494.377 112.583C494.025 112.786 493.737 113.085 493.513 113.479C493.3 113.863 493.193 114.322 493.193 114.855C493.193 115.389 493.3 115.858 493.513 116.263C493.737 116.658 494.025 116.962 494.377 117.175C494.74 117.389 495.124 117.495 495.529 117.495C495.945 117.495 496.334 117.394 496.697 117.191C497.06 116.978 497.348 116.679 497.561 116.295C497.774 115.901 497.881 115.431 497.881 114.887ZM504.933 112.295V116.583C504.933 116.882 505.002 117.101 505.141 117.239C505.29 117.367 505.535 117.431 505.877 117.431H506.917V119.319H505.509C503.621 119.319 502.677 118.402 502.677 116.567V112.295H501.621V110.455H502.677V108.263H504.933V110.455H506.917V112.295H504.933ZM512.592 112.295H511.04V119.319H508.768V112.295H507.76V110.455H508.768V110.007C508.768 108.919 509.077 108.119 509.696 107.607C510.314 107.095 511.248 106.855 512.496 106.887V108.775C511.952 108.765 511.573 108.855 511.36 109.047C511.146 109.239 511.04 109.586 511.04 110.087V110.455H512.592V112.295ZM517.979 119.463C517.126 119.463 516.358 119.277 515.675 118.903C514.993 118.519 514.454 117.981 514.059 117.287C513.675 116.594 513.483 115.794 513.483 114.887C513.483 113.981 513.681 113.181 514.075 112.487C514.481 111.794 515.03 111.261 515.723 110.887C516.417 110.503 517.19 110.311 518.043 110.311C518.897 110.311 519.67 110.503 520.363 110.887C521.057 111.261 521.601 111.794 521.995 112.487C522.401 113.181 522.603 113.981 522.603 114.887C522.603 115.794 522.395 116.594 521.979 117.287C521.574 117.981 521.019 118.519 520.315 118.903C519.622 119.277 518.843 119.463 517.979 119.463ZM517.979 117.511C518.385 117.511 518.763 117.415 519.115 117.223C519.478 117.021 519.766 116.722 519.979 116.327C520.193 115.933 520.299 115.453 520.299 114.887C520.299 114.045 520.075 113.399 519.627 112.951C519.19 112.493 518.651 112.263 518.011 112.263C517.371 112.263 516.833 112.493 516.395 112.951C515.969 113.399 515.755 114.045 515.755 114.887C515.755 115.73 515.963 116.381 516.379 116.839C516.806 117.287 517.339 117.511 517.979 117.511ZM526.487 111.831C526.775 111.362 527.148 110.994 527.607 110.727C528.076 110.461 528.609 110.327 529.207 110.327V112.679H528.615C527.911 112.679 527.377 112.845 527.015 113.175C526.663 113.506 526.487 114.082 526.487 114.903V119.319H524.247V110.455H526.487V111.831ZM541.723 110.327C542.811 110.327 543.686 110.663 544.347 111.335C545.019 111.997 545.355 112.925 545.355 114.119V119.319H543.115V114.423C543.115 113.73 542.939 113.202 542.587 112.839C542.235 112.466 541.755 112.279 541.147 112.279C540.539 112.279 540.054 112.466 539.691 112.839C539.339 113.202 539.163 113.73 539.163 114.423V119.319H536.923V114.423C536.923 113.73 536.747 113.202 536.395 112.839C536.043 112.466 535.563 112.279 534.955 112.279C534.337 112.279 533.846 112.466 533.483 112.839C533.131 113.202 532.955 113.73 532.955 114.423V119.319H530.715V110.455H532.955V111.527C533.243 111.154 533.611 110.861 534.059 110.647C534.518 110.434 535.019 110.327 535.563 110.327C536.257 110.327 536.875 110.477 537.419 110.775C537.963 111.063 538.385 111.479 538.683 112.023C538.971 111.511 539.387 111.101 539.931 110.791C540.486 110.482 541.083 110.327 541.723 110.327ZM550.873 119.463C550.148 119.463 549.497 119.335 548.921 119.079C548.345 118.813 547.886 118.455 547.545 118.007C547.214 117.559 547.033 117.063 547.001 116.519H549.257C549.3 116.861 549.465 117.143 549.753 117.367C550.052 117.591 550.42 117.703 550.857 117.703C551.284 117.703 551.614 117.618 551.849 117.447C552.094 117.277 552.217 117.058 552.217 116.791C552.217 116.503 552.068 116.29 551.769 116.151C551.481 116.002 551.017 115.842 550.377 115.671C549.716 115.511 549.172 115.346 548.745 115.175C548.329 115.005 547.966 114.743 547.657 114.391C547.358 114.039 547.209 113.565 547.209 112.967C547.209 112.477 547.348 112.029 547.625 111.623C547.913 111.218 548.318 110.898 548.841 110.663C549.374 110.429 549.998 110.311 550.713 110.311C551.769 110.311 552.612 110.578 553.241 111.111C553.87 111.634 554.217 112.343 554.281 113.239H552.137C552.105 112.887 551.956 112.61 551.689 112.407C551.433 112.194 551.086 112.087 550.649 112.087C550.244 112.087 549.929 112.162 549.705 112.311C549.492 112.461 549.385 112.669 549.385 112.935C549.385 113.234 549.534 113.463 549.833 113.623C550.132 113.773 550.596 113.927 551.225 114.087C551.865 114.247 552.393 114.413 552.809 114.583C553.225 114.754 553.582 115.021 553.881 115.383C554.19 115.735 554.35 116.205 554.361 116.791C554.361 117.303 554.217 117.762 553.929 118.167C553.652 118.573 553.246 118.893 552.713 119.127C552.19 119.351 551.577 119.463 550.873 119.463Z" fill="black" fill-opacity="0.56"/>
</svg>
