<svg width="98" height="101" viewBox="0 0 98 101" fill="none" xmlns="http://www.w3.org/2000/svg">
<circle cx="49" cy="49" r="49" fill="black"/>
<path d="M33.6035 38.2949C33.584 38.334 33.5417 38.4154 33.4766 38.5391C33.4115 38.6562 33.3268 38.7962 33.2227 38.959C33.1185 39.1152 32.9948 39.2845 32.8516 39.4668C32.7083 39.6426 32.5521 39.8053 32.3828 39.9551C32.2135 40.1048 32.0312 40.2285 31.8359 40.3262C31.6406 40.4238 31.4388 40.4727 31.2305 40.4727C30.8919 40.4727 30.6055 40.4141 30.3711 40.2969C30.1367 40.1732 29.9447 40.0365 29.7949 39.8867C29.6908 40.1146 29.5638 40.3229 29.4141 40.5117C29.2643 40.7005 29.0983 40.8633 28.916 41C28.7337 41.1432 28.5384 41.2539 28.3301 41.332C28.1283 41.4102 27.9199 41.4492 27.7051 41.4492C27.3079 41.4492 26.9694 41.332 26.6895 41.0977C26.4095 40.8633 26.1751 40.5508 25.9863 40.1602C25.804 39.763 25.6608 39.304 25.5566 38.7832C25.4525 38.2624 25.3711 37.7155 25.3125 37.1426C25.2604 36.5697 25.2279 35.9902 25.2148 35.4043C25.2018 34.8184 25.1953 34.2617 25.1953 33.7344C25.1953 32.7253 25.2246 31.8529 25.2832 31.1172C25.3418 30.375 25.4199 29.7467 25.5176 29.2324C25.6217 28.7116 25.7389 28.2917 25.8691 27.9727C26.0059 27.6471 26.1491 27.3965 26.2988 27.2207C26.4486 27.0384 26.6016 26.9147 26.7578 26.8496C26.9141 26.7845 27.0671 26.752 27.2168 26.752C27.4577 26.752 27.6693 26.8236 27.8516 26.9668C28.0404 27.11 28.1966 27.3118 28.3203 27.5723C28.4505 27.8262 28.5482 28.1354 28.6133 28.5C28.6784 28.8646 28.7109 29.265 28.7109 29.7012C28.7109 30.3978 28.6361 31.1172 28.4863 31.8594C28.3366 32.6016 28.1413 33.3438 27.9004 34.0859C27.666 34.8216 27.4023 35.5475 27.1094 36.2637C26.8164 36.9733 26.5267 37.6471 26.2402 38.2852C26.2793 38.6042 26.3379 38.9102 26.416 39.2031C26.4941 39.4896 26.5951 39.7467 26.7188 39.9746C26.8424 40.196 26.9889 40.375 27.1582 40.5117C27.3275 40.6419 27.5228 40.707 27.7441 40.707C27.9655 40.707 28.1738 40.6452 28.3691 40.5215C28.5645 40.3913 28.7337 40.2253 28.877 40.0234C29.0202 39.8151 29.1309 39.5807 29.209 39.3203C29.2936 39.0599 29.3359 38.793 29.3359 38.5195C29.3359 38.3372 29.3164 38.1549 29.2773 37.9727C29.2448 37.7839 29.1895 37.6178 29.1113 37.4746C29.0397 37.3249 28.9486 37.2044 28.8379 37.1133C28.7272 37.0221 28.5938 36.9766 28.4375 36.9766C28.3203 36.9766 28.2292 37.0026 28.1641 37.0547C28.099 37.1003 28.0501 37.1556 28.0176 37.2207C27.985 37.2793 27.9655 37.3379 27.959 37.3965C27.9525 37.4551 27.9492 37.4941 27.9492 37.5137C27.9492 37.6048 27.9688 37.696 28.0078 37.7871C28.0469 37.8783 28.1217 37.9596 28.2324 38.0312C28.3431 38.1094 28.3984 38.2168 28.3984 38.3535C28.3984 38.4642 28.3594 38.5521 28.2812 38.6172C28.2096 38.6823 28.1283 38.7148 28.0371 38.7148C27.9069 38.7148 27.7897 38.6758 27.6855 38.5977C27.5879 38.5195 27.5033 38.4219 27.4316 38.3047C27.36 38.181 27.3047 38.0508 27.2656 37.9141C27.2266 37.7773 27.207 37.6504 27.207 37.5332C27.207 37.3444 27.2396 37.1719 27.3047 37.0156C27.3698 36.8529 27.4577 36.7161 27.5684 36.6055C27.6855 36.4883 27.8158 36.4004 27.959 36.3418C28.1087 36.2767 28.265 36.2441 28.4277 36.2441C28.7077 36.2441 28.9486 36.3092 29.1504 36.4395C29.3587 36.5697 29.5312 36.7422 29.668 36.957C29.8047 37.1719 29.9056 37.416 29.9707 37.6895C30.0358 37.9629 30.0684 38.2396 30.0684 38.5195C30.0684 38.6823 30.0586 38.8418 30.0391 38.998C30.0651 39.0501 30.1074 39.1185 30.166 39.2031C30.2246 39.2878 30.3027 39.3691 30.4004 39.4473C30.498 39.5254 30.6152 39.5938 30.752 39.6523C30.8887 39.7109 31.0482 39.7402 31.2305 39.7402C31.3867 39.7402 31.5462 39.6816 31.709 39.5645C31.8783 39.4408 32.0378 39.291 32.1875 39.1152C32.3438 38.9329 32.487 38.7409 32.6172 38.5391C32.7474 38.3307 32.8548 38.1387 32.9395 37.9629C32.972 37.8978 33.0176 37.849 33.0762 37.8164C33.1348 37.7773 33.1999 37.7578 33.2715 37.7578C33.3822 37.7578 33.4701 37.7969 33.5352 37.875C33.6068 37.9531 33.6426 38.041 33.6426 38.1387C33.6426 38.1777 33.6296 38.2298 33.6035 38.2949ZM26.0547 37.0352C26.276 36.4883 26.5007 35.9154 26.7285 35.3164C26.9564 34.7109 27.1615 34.0957 27.3438 33.4707C27.526 32.8457 27.6758 32.2142 27.793 31.5762C27.9102 30.9382 27.9688 30.3099 27.9688 29.6914C27.9688 29.457 27.9557 29.2129 27.9297 28.959C27.9102 28.6986 27.8711 28.4609 27.8125 28.2461C27.7539 28.0312 27.6725 27.8522 27.5684 27.709C27.4707 27.5658 27.3438 27.4941 27.1875 27.4941C27.1354 27.4941 27.0671 27.5299 26.9824 27.6016C26.9043 27.6667 26.8197 27.7871 26.7285 27.9629C26.6374 28.1322 26.5462 28.3698 26.4551 28.6758C26.3639 28.9818 26.2793 29.3724 26.2012 29.8477C26.1296 30.3164 26.0677 30.8828 26.0156 31.5469C25.9701 32.2109 25.9473 32.9922 25.9473 33.8906C25.9473 34.1901 25.9505 34.4961 25.957 34.8086C25.9635 35.1146 25.9701 35.4076 25.9766 35.6875C25.9896 35.9674 26.0026 36.2246 26.0156 36.459C26.0286 36.6934 26.0417 36.8854 26.0547 37.0352ZM40.498 38.2754C40.472 38.3275 40.4167 38.4382 40.332 38.6074C40.2539 38.7702 40.1497 38.959 40.0195 39.1738C39.8958 39.3887 39.7493 39.6133 39.5801 39.8477C39.4108 40.082 39.222 40.2969 39.0137 40.4922C38.8053 40.6875 38.5807 40.8503 38.3398 40.9805C38.099 41.1042 37.8451 41.166 37.5781 41.166C37.2005 41.166 36.8815 41.0456 36.6211 40.8047C36.3672 40.5638 36.1816 40.2611 36.0645 39.8965C35.8431 40.2676 35.5794 40.5638 35.2734 40.7852C34.9674 41 34.6615 41.1074 34.3555 41.1074C34.1146 41.1074 33.8965 41.0651 33.7012 40.9805C33.5059 40.8893 33.3398 40.7656 33.2031 40.6094C33.0664 40.4466 32.959 40.2578 32.8809 40.043C32.8092 39.8281 32.7734 39.5938 32.7734 39.3398C32.7734 38.832 32.8581 38.3861 33.0273 38.002C33.2031 37.6113 33.4245 37.2858 33.6914 37.0254C33.9583 36.765 34.2513 36.5697 34.5703 36.4395C34.8958 36.3092 35.2083 36.2441 35.5078 36.2441C35.7096 36.2441 35.8952 36.2734 36.0645 36.332C36.2337 36.3841 36.377 36.4427 36.4941 36.5078C36.6178 36.5729 36.7122 36.6348 36.7773 36.6934C36.8424 36.7454 36.8783 36.7747 36.8848 36.7812C36.9564 36.8659 36.9922 36.9538 36.9922 37.0449C36.9922 37.1426 36.9564 37.2305 36.8848 37.3086C36.8132 37.3802 36.7285 37.416 36.6309 37.416C36.5267 37.416 36.4388 37.3802 36.3672 37.3086C36.3542 37.2956 36.3249 37.2728 36.2793 37.2402C36.2337 37.2012 36.1719 37.1621 36.0938 37.123C36.0156 37.084 35.9212 37.0514 35.8105 37.0254C35.7064 36.9928 35.5859 36.9766 35.4492 36.9766C35.2474 36.9766 35.0326 37.0221 34.8047 37.1133C34.5768 37.2044 34.3685 37.3477 34.1797 37.543C33.9909 37.7318 33.8314 37.9727 33.7012 38.2656C33.5775 38.5521 33.5156 38.8939 33.5156 39.291C33.5156 39.4147 33.5286 39.5417 33.5547 39.6719C33.5807 39.7956 33.6263 39.9095 33.6914 40.0137C33.7565 40.1178 33.8444 40.2025 33.9551 40.2676C34.0658 40.3327 34.2025 40.3652 34.3652 40.3652C34.4824 40.3652 34.6159 40.3262 34.7656 40.248C34.9219 40.1699 35.0684 40.0495 35.2051 39.8867C35.3483 39.724 35.4753 39.5189 35.5859 39.2715C35.7031 39.0241 35.7845 38.7311 35.8301 38.3926C35.8431 38.3014 35.8854 38.2266 35.957 38.168C36.0286 38.1029 36.1133 38.0703 36.2109 38.0703C36.3021 38.0703 36.3802 38.1061 36.4453 38.1777C36.5169 38.2493 36.556 38.3307 36.5625 38.4219C36.569 38.5456 36.582 38.7214 36.6016 38.9492C36.6211 39.1706 36.6634 39.3919 36.7285 39.6133C36.8001 39.8346 36.9043 40.0267 37.041 40.1895C37.1777 40.3522 37.3665 40.4336 37.6074 40.4336C37.7637 40.4336 37.9167 40.3913 38.0664 40.3066C38.2227 40.222 38.3724 40.1113 38.5156 39.9746C38.6654 39.8314 38.8053 39.6719 38.9355 39.4961C39.0723 39.3138 39.196 39.1315 39.3066 38.9492C39.4173 38.7669 39.515 38.5911 39.5996 38.4219C39.6842 38.2526 39.7559 38.1061 39.8145 37.9824C39.847 37.9108 39.8926 37.8555 39.9512 37.8164C40.0163 37.7773 40.0846 37.7578 40.1562 37.7578C40.2669 37.7578 40.3548 37.8001 40.4199 37.8848C40.4915 37.9629 40.5273 38.0475 40.5273 38.1387C40.5273 38.1842 40.5176 38.2298 40.498 38.2754ZM40.8496 36.9863C40.8236 37.1621 40.791 37.3281 40.752 37.4844C40.7129 37.6341 40.6738 37.7676 40.6348 37.8848C40.6022 37.9954 40.5729 38.0866 40.5469 38.1582C40.5208 38.2298 40.5046 38.2689 40.498 38.2754C40.4329 38.4251 40.319 38.5 40.1562 38.5C40.0651 38.5 39.9805 38.4674 39.9023 38.4023C39.8242 38.3307 39.7852 38.2428 39.7852 38.1387C39.7852 38.0996 39.7917 38.0703 39.8047 38.0508C39.8177 38.0312 39.8372 37.9922 39.8633 37.9336C39.8893 37.875 39.9219 37.7773 39.9609 37.6406C40 37.5039 40.0488 37.2923 40.1074 37.0059C39.9967 37.0059 39.8828 37.0026 39.7656 36.9961C39.6484 36.9896 39.541 36.9668 39.4434 36.9277C39.3392 36.8887 39.2546 36.8268 39.1895 36.7422C39.1243 36.6576 39.0918 36.5404 39.0918 36.3906C39.0918 36.2799 39.1243 36.1302 39.1895 35.9414C39.248 35.7526 39.3294 35.5671 39.4336 35.3848C39.5378 35.2025 39.6549 35.0462 39.7852 34.916C39.9154 34.7793 40.0456 34.7109 40.1758 34.7109C40.3255 34.7109 40.446 34.7663 40.5371 34.877C40.6348 34.9876 40.7096 35.1243 40.7617 35.2871C40.8138 35.4434 40.8496 35.6094 40.8691 35.7852C40.8952 35.9609 40.9082 36.1139 40.9082 36.2441C41.0189 36.2441 41.1263 36.2441 41.2305 36.2441C41.3411 36.2376 41.4453 36.2344 41.543 36.2344C41.9141 36.2344 42.1973 36.3158 42.3926 36.4785C42.5879 36.6413 42.6855 36.9082 42.6855 37.2793C42.6855 37.429 42.6758 37.5853 42.6562 37.748C42.6367 37.9108 42.6139 38.0801 42.5879 38.2559C42.5618 38.4251 42.5391 38.5944 42.5195 38.7637C42.5 38.9329 42.4902 39.099 42.4902 39.2617C42.4902 39.4961 42.5228 39.6914 42.5879 39.8477C42.653 39.9974 42.7344 40.1178 42.832 40.209C42.9297 40.3001 43.0339 40.3652 43.1445 40.4043C43.2552 40.4368 43.3561 40.4531 43.4473 40.4531C43.7272 40.4531 43.9909 40.362 44.2383 40.1797C44.4857 39.9974 44.7135 39.7793 44.9219 39.5254C45.1302 39.265 45.3158 38.9915 45.4785 38.7051C45.6478 38.4186 45.7878 38.168 45.8984 37.9531C45.931 37.8945 45.9766 37.849 46.0352 37.8164C46.0938 37.7839 46.1556 37.7676 46.2207 37.7676C46.3379 37.7676 46.429 37.8066 46.4941 37.8848C46.5592 37.9564 46.5918 38.0378 46.5918 38.1289C46.5918 38.194 46.5788 38.2526 46.5527 38.3047C46.403 38.5716 46.2272 38.8743 46.0254 39.2129C45.8301 39.5449 45.6055 39.8574 45.3516 40.1504C45.0977 40.4434 44.8112 40.6908 44.4922 40.8926C44.1797 41.0944 43.8346 41.1953 43.457 41.1953C43.2227 41.1953 43.0013 41.1497 42.793 41.0586C42.5846 40.974 42.4023 40.8503 42.2461 40.6875C42.0964 40.5182 41.9759 40.3132 41.8848 40.0723C41.7936 39.8249 41.748 39.5482 41.748 39.2422C41.748 38.9167 41.7806 38.5944 41.8457 38.2754C41.9108 37.9499 41.9434 37.6406 41.9434 37.3477C41.9434 37.224 41.9141 37.1328 41.8555 37.0742C41.8034 37.0091 41.6829 36.9766 41.4941 36.9766C41.403 36.9766 41.3021 36.9766 41.1914 36.9766C41.0872 36.9766 40.9733 36.9798 40.8496 36.9863ZM40.1953 36.2637C40.1953 36.2181 40.1921 36.1595 40.1855 36.0879C40.1855 36.0098 40.179 35.9349 40.166 35.8633C40.1595 35.7917 40.1465 35.7298 40.127 35.6777C40.1139 35.6257 40.0977 35.5996 40.0781 35.5996C40.0586 35.5996 40.0326 35.6257 40 35.6777C39.974 35.7233 39.9447 35.7819 39.9121 35.8535C39.8796 35.9186 39.8503 35.9902 39.8242 36.0684C39.7982 36.1465 39.7786 36.2116 39.7656 36.2637H40.1953ZM49.4336 41.957C50.6576 40.362 51.5072 39.0371 51.9824 37.9824C52.015 37.9108 52.0573 37.8587 52.1094 37.8262C52.168 37.7871 52.2331 37.7676 52.3047 37.7676C52.4154 37.7676 52.5065 37.8066 52.5781 37.8848C52.6497 37.9564 52.6855 38.041 52.6855 38.1387C52.6855 38.1842 52.6758 38.2298 52.6562 38.2754C52.3698 38.9264 51.9629 39.6523 51.4355 40.4531C50.9082 41.2539 50.2409 42.1589 49.4336 43.168C49.4336 43.5781 49.4368 43.9883 49.4434 44.3984C49.4499 44.8086 49.4531 45.2578 49.4531 45.7461C49.4531 46.2344 49.4401 46.7161 49.4141 47.1914C49.3945 47.6732 49.3555 48.1289 49.2969 48.5586C49.2383 48.9948 49.1569 49.3952 49.0527 49.7598C48.9551 50.1309 48.8249 50.4499 48.6621 50.7168C48.5059 50.9902 48.3138 51.2018 48.0859 51.3516C47.8646 51.5078 47.6009 51.5859 47.2949 51.5859C46.8587 51.5859 46.5234 51.4199 46.2891 51.0879C46.0547 50.7559 45.9375 50.2839 45.9375 49.6719C45.9375 49.3464 45.9668 48.9915 46.0254 48.6074C46.0905 48.2298 46.1816 47.8392 46.2988 47.4355C46.416 47.0319 46.556 46.6217 46.7188 46.2051C46.888 45.7949 47.0736 45.3945 47.2754 45.0039C47.4772 44.6133 47.6953 44.2389 47.9297 43.8809C48.1706 43.5228 48.4245 43.1973 48.6914 42.9043C48.6979 42.4486 48.7012 41.9961 48.7012 41.5469C48.7077 41.0977 48.7174 40.6842 48.7305 40.3066C48.5352 40.554 48.3008 40.7493 48.0273 40.8926C47.7604 41.0358 47.4935 41.1074 47.2266 41.1074C46.9987 41.1074 46.7904 41.0651 46.6016 40.9805C46.4193 40.8893 46.263 40.7656 46.1328 40.6094C46.0026 40.4466 45.9017 40.2578 45.8301 40.043C45.7585 39.8281 45.7227 39.5938 45.7227 39.3398C45.7227 38.832 45.8073 38.3861 45.9766 38.002C46.1523 37.6113 46.3737 37.2858 46.6406 37.0254C46.9076 36.765 47.2005 36.5697 47.5195 36.4395C47.8451 36.3092 48.1576 36.2441 48.457 36.2441C48.6589 36.2441 48.8444 36.2702 49.0137 36.3223C49.1829 36.3743 49.3262 36.4329 49.4434 36.498C49.5671 36.5632 49.6615 36.625 49.7266 36.6836C49.7917 36.7422 49.8275 36.7747 49.834 36.7812C49.9056 36.8594 49.9414 36.9473 49.9414 37.0449C49.9414 37.1426 49.9056 37.2305 49.834 37.3086C49.7624 37.3802 49.6777 37.416 49.5801 37.416C49.4889 37.416 49.401 37.3802 49.3164 37.3086C49.2904 37.2891 49.2546 37.263 49.209 37.2305C49.1699 37.1914 49.1146 37.1523 49.043 37.1133C48.9779 37.0742 48.8965 37.0417 48.7988 37.0156C48.7077 36.9896 48.597 36.9766 48.4668 36.9766C48.2715 36.9766 48.0566 37.0221 47.8223 37.1133C47.5879 37.1979 47.3698 37.3346 47.168 37.5234C46.9661 37.7122 46.7969 37.9564 46.6602 38.2559C46.5234 38.5488 46.4551 38.9036 46.4551 39.3203C46.4551 39.6328 46.5234 39.8867 46.6602 40.082C46.7969 40.2708 47.0085 40.3652 47.2949 40.3652C47.4316 40.3652 47.5749 40.3262 47.7246 40.248C47.8809 40.1699 48.0306 40.0495 48.1738 39.8867C48.3171 39.724 48.4408 39.5189 48.5449 39.2715C48.6556 39.0241 48.7337 38.7311 48.7793 38.3926C48.7923 38.3014 48.8346 38.2266 48.9062 38.168C48.9779 38.1029 49.0625 38.0703 49.1602 38.0703C49.2708 38.0703 49.3555 38.1094 49.4141 38.1875C49.4792 38.2656 49.5117 38.3535 49.5117 38.4512C49.5117 38.4577 49.5085 38.5586 49.502 38.7539C49.4954 38.9427 49.4889 39.1966 49.4824 39.5156C49.4759 39.8346 49.4661 40.2057 49.4531 40.6289C49.4466 41.0456 49.4401 41.4883 49.4336 41.957ZM48.6914 44.0957C48.3854 44.5189 48.1087 44.9779 47.8613 45.4727C47.6139 45.974 47.4023 46.4785 47.2266 46.9863C47.0508 47.4941 46.9141 47.9857 46.8164 48.4609C46.7253 48.9427 46.6797 49.3724 46.6797 49.75C46.6797 49.9909 46.6992 50.1829 46.7383 50.3262C46.7839 50.4694 46.8359 50.5801 46.8945 50.6582C46.9596 50.7363 47.028 50.7884 47.0996 50.8145C47.1777 50.8405 47.2493 50.8535 47.3145 50.8535C47.5163 50.8535 47.6921 50.7721 47.8418 50.6094C47.9915 50.4466 48.1185 50.2285 48.2227 49.9551C48.3268 49.6882 48.4115 49.3789 48.4766 49.0273C48.5417 48.6758 48.5905 48.3112 48.623 47.9336C48.6556 47.5625 48.6784 47.1914 48.6914 46.8203C48.7044 46.4492 48.7109 46.1074 48.7109 45.7949C48.7109 45.515 48.7109 45.235 48.7109 44.9551C48.7109 44.6751 48.7044 44.3887 48.6914 44.0957ZM59.541 38.2754C59.515 38.3275 59.4596 38.4382 59.375 38.6074C59.2969 38.7702 59.1927 38.959 59.0625 39.1738C58.9388 39.3887 58.7923 39.6133 58.623 39.8477C58.4538 40.082 58.265 40.2969 58.0566 40.4922C57.8483 40.6875 57.6237 40.8503 57.3828 40.9805C57.1419 41.1042 56.888 41.166 56.6211 41.166C56.2435 41.166 55.9245 41.0456 55.6641 40.8047C55.4102 40.5638 55.2246 40.2611 55.1074 39.8965C54.8861 40.2676 54.6224 40.5638 54.3164 40.7852C54.0104 41 53.7044 41.1074 53.3984 41.1074C53.1576 41.1074 52.9395 41.0651 52.7441 40.9805C52.5488 40.8893 52.3828 40.7656 52.2461 40.6094C52.1094 40.4466 52.002 40.2578 51.9238 40.043C51.8522 39.8281 51.8164 39.5938 51.8164 39.3398C51.8164 38.832 51.901 38.3861 52.0703 38.002C52.2461 37.6113 52.4674 37.2858 52.7344 37.0254C53.0013 36.765 53.2943 36.5697 53.6133 36.4395C53.9388 36.3092 54.2513 36.2441 54.5508 36.2441C54.7526 36.2441 54.9382 36.2734 55.1074 36.332C55.2767 36.3841 55.4199 36.4427 55.5371 36.5078C55.6608 36.5729 55.7552 36.6348 55.8203 36.6934C55.8854 36.7454 55.9212 36.7747 55.9277 36.7812C55.9993 36.8659 56.0352 36.9538 56.0352 37.0449C56.0352 37.1426 55.9993 37.2305 55.9277 37.3086C55.8561 37.3802 55.7715 37.416 55.6738 37.416C55.5697 37.416 55.4818 37.3802 55.4102 37.3086C55.3971 37.2956 55.3678 37.2728 55.3223 37.2402C55.2767 37.2012 55.2148 37.1621 55.1367 37.123C55.0586 37.084 54.9642 37.0514 54.8535 37.0254C54.7493 36.9928 54.6289 36.9766 54.4922 36.9766C54.2904 36.9766 54.0755 37.0221 53.8477 37.1133C53.6198 37.2044 53.4115 37.3477 53.2227 37.543C53.0339 37.7318 52.8743 37.9727 52.7441 38.2656C52.6204 38.5521 52.5586 38.8939 52.5586 39.291C52.5586 39.4147 52.5716 39.5417 52.5977 39.6719C52.6237 39.7956 52.6693 39.9095 52.7344 40.0137C52.7995 40.1178 52.8874 40.2025 52.998 40.2676C53.1087 40.3327 53.2454 40.3652 53.4082 40.3652C53.5254 40.3652 53.6589 40.3262 53.8086 40.248C53.9648 40.1699 54.1113 40.0495 54.248 39.8867C54.3913 39.724 54.5182 39.5189 54.6289 39.2715C54.7461 39.0241 54.8275 38.7311 54.873 38.3926C54.8861 38.3014 54.9284 38.2266 55 38.168C55.0716 38.1029 55.1562 38.0703 55.2539 38.0703C55.3451 38.0703 55.4232 38.1061 55.4883 38.1777C55.5599 38.2493 55.599 38.3307 55.6055 38.4219C55.612 38.5456 55.625 38.7214 55.6445 38.9492C55.6641 39.1706 55.7064 39.3919 55.7715 39.6133C55.8431 39.8346 55.9473 40.0267 56.084 40.1895C56.2207 40.3522 56.4095 40.4336 56.6504 40.4336C56.8066 40.4336 56.9596 40.3913 57.1094 40.3066C57.2656 40.222 57.4154 40.1113 57.5586 39.9746C57.7083 39.8314 57.8483 39.6719 57.9785 39.4961C58.1152 39.3138 58.2389 39.1315 58.3496 38.9492C58.4603 38.7669 58.5579 38.5911 58.6426 38.4219C58.7272 38.2526 58.7988 38.1061 58.8574 37.9824C58.89 37.9108 58.9355 37.8555 58.9941 37.8164C59.0592 37.7773 59.1276 37.7578 59.1992 37.7578C59.3099 37.7578 59.3978 37.8001 59.4629 37.8848C59.5345 37.9629 59.5703 38.0475 59.5703 38.1387C59.5703 38.1842 59.5605 38.2298 59.541 38.2754ZM60.459 33.334C60.459 33.5814 60.3711 33.793 60.1953 33.9688C60.026 34.138 59.8177 34.2227 59.5703 34.2227C59.3229 34.2227 59.1113 34.138 58.9355 33.9688C58.7663 33.793 58.6816 33.5814 58.6816 33.334C58.6816 33.2103 58.7044 33.0964 58.75 32.9922C58.7956 32.8815 58.8574 32.7871 58.9355 32.709C59.0202 32.6243 59.1146 32.5592 59.2188 32.5137C59.3294 32.4681 59.4466 32.4453 59.5703 32.4453C59.694 32.4453 59.8079 32.4681 59.9121 32.5137C60.0228 32.5592 60.1172 32.6243 60.1953 32.709C60.2799 32.7871 60.3451 32.8815 60.3906 32.9922C60.4362 33.0964 60.459 33.2103 60.459 33.334ZM58.877 39.0566C58.877 38.1191 58.9355 37.1849 59.0527 36.2539C59.0658 36.1628 59.1048 36.0846 59.1699 36.0195C59.2415 35.9479 59.3327 35.9121 59.4434 35.9121C59.541 35.9121 59.6224 35.9512 59.6875 36.0293C59.7526 36.1009 59.7852 36.1855 59.7852 36.2832C59.7852 36.3223 59.7754 36.4395 59.7559 36.6348C59.7428 36.8301 59.7233 37.0645 59.6973 37.3379C59.6777 37.6048 59.6582 37.8913 59.6387 38.1973C59.6257 38.4967 59.6191 38.7734 59.6191 39.0273C59.6191 39.3724 59.6517 39.6523 59.7168 39.8672C59.7884 40.0755 59.8763 40.2383 59.9805 40.3555C60.0911 40.4727 60.2051 40.5508 60.3223 40.5898C60.446 40.6289 60.5632 40.6484 60.6738 40.6484C60.8561 40.6484 61.0449 40.5833 61.2402 40.4531C61.4355 40.3229 61.6341 40.1406 61.8359 39.9062C62.0443 39.6719 62.2526 39.3919 62.4609 39.0664C62.6693 38.7344 62.8743 38.3665 63.0762 37.9629C63.1087 37.8978 63.1543 37.849 63.2129 37.8164C63.2715 37.7773 63.3366 37.7578 63.4082 37.7578C63.5124 37.7578 63.597 37.7969 63.6621 37.875C63.7337 37.9531 63.7695 38.0378 63.7695 38.1289C63.7695 38.194 63.7565 38.2493 63.7305 38.2949C63.6523 38.4447 63.5547 38.627 63.4375 38.8418C63.3203 39.0566 63.1868 39.278 63.0371 39.5059C62.8874 39.7337 62.7214 39.9616 62.5391 40.1895C62.3633 40.4108 62.1745 40.6126 61.9727 40.7949C61.7708 40.9707 61.5592 41.1139 61.3379 41.2246C61.1165 41.3353 60.8919 41.3906 60.6641 41.3906C60.3711 41.3906 60.1139 41.3288 59.8926 41.2051C59.6712 41.0814 59.4824 40.9154 59.3262 40.707C59.1764 40.4987 59.0625 40.2546 58.9844 39.9746C58.9128 39.6882 58.877 39.3822 58.877 39.0566ZM59.9121 33.334C59.9121 33.2428 59.8763 33.1647 59.8047 33.0996C59.7396 33.028 59.6615 32.9922 59.5703 32.9922C59.4792 32.9922 59.401 33.028 59.3359 33.0996C59.2708 33.1647 59.2383 33.2428 59.2383 33.334C59.2383 33.4251 59.2708 33.5033 59.3359 33.5684C59.401 33.6335 59.4792 33.666 59.5703 33.666C59.6615 33.666 59.7396 33.6335 59.8047 33.5684C59.8763 33.5033 59.9121 33.4251 59.9121 33.334ZM65.2344 40.1211C65.3385 39.9062 65.459 39.6719 65.5957 39.418C65.7324 39.1576 65.8789 38.8971 66.0352 38.6367C66.1914 38.3698 66.3542 38.1061 66.5234 37.8457C66.6992 37.5853 66.8815 37.3379 67.0703 37.1035C67.2591 36.8757 67.4479 36.7129 67.6367 36.6152C67.832 36.5111 68.0143 36.459 68.1836 36.459C68.5221 36.459 68.7728 36.5827 68.9355 36.8301C69.0983 37.0775 69.1797 37.3835 69.1797 37.748C69.1797 37.8327 69.1732 37.9368 69.1602 38.0605C69.1536 38.1777 69.1439 38.3047 69.1309 38.4414C69.1243 38.5781 69.1146 38.7181 69.1016 38.8613C69.0951 38.998 69.0918 39.1283 69.0918 39.252C69.0918 39.4082 69.0983 39.5579 69.1113 39.7012C69.1309 39.8444 69.1634 39.9714 69.209 40.082C69.2546 40.1862 69.3197 40.2708 69.4043 40.3359C69.4889 40.3945 69.5996 40.4238 69.7363 40.4238C69.9837 40.4238 70.2246 40.3294 70.459 40.1406C70.6934 39.9453 70.9082 39.7174 71.1035 39.457C71.3053 39.1901 71.4779 38.9199 71.6211 38.6465C71.7708 38.373 71.8815 38.1517 71.9531 37.9824C71.9857 37.9108 72.0312 37.8555 72.0898 37.8164C72.1549 37.7773 72.2233 37.7578 72.2949 37.7578C72.4056 37.7578 72.4935 37.8001 72.5586 37.8848C72.6302 37.9629 72.666 38.0475 72.666 38.1387C72.666 38.1842 72.6562 38.2298 72.6367 38.2754C72.6107 38.3275 72.5586 38.4349 72.4805 38.5977C72.4023 38.7604 72.2982 38.9492 72.168 39.1641C72.0443 39.3724 71.8978 39.597 71.7285 39.8379C71.5592 40.0723 71.3704 40.2871 71.1621 40.4824C70.9603 40.6777 70.7389 40.8405 70.498 40.9707C70.2637 41.1009 70.0163 41.166 69.7559 41.166C69.4629 41.166 69.2253 41.1107 69.043 41C68.8607 40.8828 68.7174 40.7331 68.6133 40.5508C68.5091 40.362 68.4375 40.1569 68.3984 39.9355C68.3659 39.7077 68.3496 39.4798 68.3496 39.252C68.3496 39.1543 68.3529 39.0436 68.3594 38.9199C68.3724 38.7962 68.3854 38.666 68.3984 38.5293C68.418 38.3926 68.431 38.2559 68.4375 38.1191C68.4505 37.9824 68.457 37.8522 68.457 37.7285C68.457 37.5202 68.4245 37.3802 68.3594 37.3086C68.2943 37.2305 68.2357 37.1914 68.1836 37.1914C68.0794 37.1914 67.959 37.2533 67.8223 37.377C67.6921 37.4941 67.5521 37.6504 67.4023 37.8457C67.2591 38.041 67.1094 38.2624 66.9531 38.5098C66.8034 38.7507 66.6602 38.9915 66.5234 39.2324C66.3932 39.4733 66.2695 39.7044 66.1523 39.9258C66.0417 40.1406 65.9538 40.3197 65.8887 40.4629C65.7585 40.7363 65.6283 40.9186 65.498 41.0098C65.3678 41.1074 65.2344 41.1562 65.0977 41.1562C64.9089 41.1562 64.7559 41.1009 64.6387 40.9902C64.528 40.873 64.4727 40.7103 64.4727 40.502C64.4727 40.4564 64.4792 40.3685 64.4922 40.2383C64.5052 40.1016 64.5215 39.9421 64.541 39.7598C64.5605 39.571 64.5801 39.3691 64.5996 39.1543C64.6191 38.9395 64.6387 38.7279 64.6582 38.5195C64.6777 38.3047 64.694 38.1061 64.707 37.9238C64.7201 37.7415 64.7266 37.5885 64.7266 37.4648C64.7266 37.3021 64.7201 37.1458 64.707 36.9961C64.694 36.8464 64.668 36.7552 64.6289 36.7227C64.5703 36.7422 64.4661 36.8659 64.3164 37.0938C64.1667 37.3151 63.9746 37.709 63.7402 38.2754C63.7077 38.347 63.6589 38.4023 63.5938 38.4414C63.5286 38.4805 63.4603 38.5 63.3887 38.5C63.278 38.5 63.1901 38.4642 63.125 38.3926C63.0599 38.3145 63.0273 38.2266 63.0273 38.1289C63.0273 38.0833 63.0371 38.0345 63.0566 37.9824C63.3496 37.2858 63.623 36.7747 63.877 36.4492C64.1374 36.1172 64.3945 35.9512 64.6484 35.9512C64.7982 35.9512 64.9251 35.9902 65.0293 36.0684C65.1335 36.14 65.2148 36.2376 65.2734 36.3613C65.3385 36.485 65.3841 36.6217 65.4102 36.7715C65.4427 36.9212 65.459 37.0742 65.459 37.2305C65.459 37.3477 65.4492 37.5299 65.4297 37.7773C65.4167 38.0247 65.3971 38.2917 65.3711 38.5781C65.3451 38.8581 65.319 39.138 65.293 39.418C65.2734 39.6979 65.2539 39.9323 65.2344 40.1211ZM26.1426 69.1699C26.2467 68.9486 26.3672 68.7109 26.5039 68.457C26.6406 68.1966 26.7871 67.9329 26.9434 67.666C27.0996 67.3926 27.2656 67.1224 27.4414 66.8555C27.6172 66.5885 27.7995 66.3379 27.9883 66.1035C28.1771 65.8757 28.3659 65.7129 28.5547 65.6152C28.75 65.5111 28.9323 65.459 29.1016 65.459C29.2708 65.459 29.4173 65.4948 29.541 65.5664C29.6712 65.6315 29.7754 65.7227 29.8535 65.8398C29.9382 65.957 30 66.0938 30.0391 66.25C30.0846 66.4062 30.1074 66.5755 30.1074 66.7578C30.1074 66.9076 30.0911 67.1094 30.0586 67.3633C30.0326 67.6107 30.0195 67.8711 30.0195 68.1445C30.0195 68.3008 30.026 68.457 30.0391 68.6133C30.0586 68.763 30.0879 68.8997 30.127 69.0234C30.1725 69.1406 30.2376 69.2383 30.3223 69.3164C30.4069 69.388 30.5176 69.4238 30.6543 69.4238C30.8105 69.4238 30.9668 69.3815 31.123 69.2969C31.2793 69.2057 31.4323 69.0885 31.582 68.9453C31.7318 68.7956 31.875 68.6328 32.0117 68.457C32.1484 68.2747 32.2721 68.0957 32.3828 67.9199C32.4935 67.7376 32.5911 67.5651 32.6758 67.4023C32.7604 67.2331 32.8288 67.0931 32.8809 66.9824C32.946 66.8327 33.0599 66.7578 33.2227 66.7578C33.3333 66.7578 33.4212 66.7969 33.4863 66.875C33.5514 66.9531 33.584 67.0378 33.584 67.1289C33.584 67.181 33.5742 67.2298 33.5547 67.2754C33.5286 67.3275 33.4766 67.4349 33.3984 67.5977C33.3268 67.7604 33.2259 67.9492 33.0957 68.1641C32.972 68.3789 32.8255 68.6035 32.6562 68.8379C32.487 69.0723 32.2982 69.2904 32.0898 69.4922C31.888 69.6875 31.6667 69.8503 31.4258 69.9805C31.1914 70.1042 30.944 70.166 30.6836 70.166C30.3841 70.166 30.1432 70.1042 29.9609 69.9805C29.7786 69.8503 29.6354 69.6875 29.5312 69.4922C29.4336 69.2969 29.3652 69.0788 29.3262 68.8379C29.2936 68.597 29.2773 68.3626 29.2773 68.1348C29.2773 68.0176 29.2806 67.8939 29.2871 67.7637C29.3001 67.627 29.3132 67.4935 29.3262 67.3633C29.3392 67.2331 29.349 67.1126 29.3555 67.002C29.3685 66.8848 29.375 66.7871 29.375 66.709C29.375 66.5072 29.3457 66.3704 29.2871 66.2988C29.235 66.2272 29.1732 66.1914 29.1016 66.1914C28.9974 66.1914 28.877 66.2533 28.7402 66.377C28.61 66.4941 28.4701 66.6504 28.3203 66.8457C28.1771 67.041 28.0306 67.2624 27.8809 67.5098C27.7376 67.7507 27.5977 67.9915 27.4609 68.2324C27.3242 68.4733 27.2005 68.7044 27.0898 68.9258C26.9792 69.1406 26.888 69.3197 26.8164 69.4629C26.6797 69.7363 26.5397 69.9186 26.3965 70.0098C26.2598 70.1074 26.1361 70.1562 26.0254 70.1562C25.8236 70.1562 25.6673 70.0781 25.5566 69.9219C25.4525 69.7591 25.4004 69.5638 25.4004 69.3359V68.7207C25.4004 67.4902 25.4004 66.3184 25.4004 65.2051C25.4069 64.0853 25.4232 63.0469 25.4492 62.0898C25.4818 61.1263 25.5306 60.2572 25.5957 59.4824C25.6673 58.7012 25.7715 58.0371 25.9082 57.4902C26.0449 56.9368 26.2174 56.5104 26.4258 56.2109C26.6406 55.9115 26.9076 55.7617 27.2266 55.7617C27.5 55.7617 27.7311 55.8366 27.9199 55.9863C28.1087 56.1361 28.2617 56.3411 28.3789 56.6016C28.4961 56.8555 28.5807 57.1549 28.6328 57.5C28.6849 57.8385 28.7109 58.1966 28.7109 58.5742C28.7109 59.3424 28.6393 60.0977 28.4961 60.8398C28.3594 61.5755 28.1738 62.2949 27.9395 62.998C27.7051 63.7012 27.4316 64.388 27.1191 65.0586C26.8066 65.7227 26.4779 66.3704 26.1328 67.002C26.1328 67.1191 26.1328 67.2591 26.1328 67.4219C26.1328 67.5846 26.1328 67.7474 26.1328 67.9102C26.1328 68.0729 26.1328 68.2259 26.1328 68.3691C26.1328 68.5124 26.1328 68.6263 26.1328 68.7109L26.1426 69.1699ZM26.1426 65.5664C26.416 64.9674 26.6634 64.3848 26.8848 63.8184C27.1126 63.2454 27.3047 62.6758 27.4609 62.1094C27.6237 61.543 27.7507 60.9701 27.8418 60.3906C27.9329 59.8047 27.9785 59.196 27.9785 58.5645C27.9785 58.4603 27.972 58.2943 27.959 58.0664C27.9525 57.8385 27.9232 57.6074 27.8711 57.373C27.8255 57.1387 27.7507 56.9336 27.6465 56.7578C27.5488 56.582 27.4089 56.4941 27.2266 56.4941C27.0833 56.4941 26.9596 56.5918 26.8555 56.7871C26.7513 56.9759 26.6602 57.2363 26.582 57.5684C26.5039 57.8939 26.4388 58.2747 26.3867 58.7109C26.3346 59.1471 26.2923 59.6094 26.2598 60.0977C26.2272 60.5859 26.2012 61.0872 26.1816 61.6016C26.1686 62.1159 26.1589 62.6172 26.1523 63.1055C26.1458 63.5872 26.1426 64.0397 26.1426 64.4629C26.1426 64.8861 26.1426 65.2539 26.1426 65.5664ZM36.1328 68.9062C35.9049 69.2773 35.638 69.5703 35.332 69.7852C35.0326 70 34.7298 70.1074 34.4238 70.1074C34.1764 70.1074 33.9551 70.0618 33.7598 69.9707C33.5645 69.8796 33.3952 69.7526 33.252 69.5898C33.1087 69.4206 32.998 69.2188 32.9199 68.9844C32.8483 68.75 32.8125 68.4863 32.8125 68.1934C32.8125 67.7376 32.8548 67.334 32.9395 66.9824C33.0306 66.6309 33.1283 66.3379 33.2324 66.1035C33.3366 65.8626 33.4342 65.6803 33.5254 65.5566C33.6165 65.4329 33.6621 65.3711 33.6621 65.3711C33.6947 65.332 33.7337 65.3027 33.7793 65.2832C33.8314 65.2637 33.8835 65.2539 33.9355 65.2539C34.0397 65.2539 34.1243 65.293 34.1895 65.3711C34.2611 65.4427 34.2969 65.5273 34.2969 65.625C34.2969 65.6641 34.2871 65.7031 34.2676 65.7422C34.2546 65.7812 34.2383 65.8203 34.2188 65.8594C34.1862 65.918 34.1341 66.0091 34.0625 66.1328C33.9909 66.25 33.916 66.4062 33.8379 66.6016C33.7598 66.7969 33.6914 67.028 33.6328 67.2949C33.5742 67.5553 33.5449 67.8548 33.5449 68.1934C33.5449 68.5775 33.6198 68.8704 33.7695 69.0723C33.9258 69.2676 34.1439 69.3652 34.4238 69.3652C34.541 69.3652 34.6745 69.3294 34.8242 69.2578C34.9805 69.1797 35.1302 69.0625 35.2734 68.9062C35.4232 68.75 35.5534 68.5514 35.6641 68.3105C35.7747 68.0697 35.8464 67.7865 35.8789 67.4609L36.0254 65.7812C36.0384 65.6836 36.0807 65.6022 36.1523 65.5371C36.224 65.472 36.3086 65.4395 36.4062 65.4395C36.5169 65.4395 36.6048 65.4818 36.6699 65.5664C36.735 65.6445 36.7676 65.7357 36.7676 65.8398L36.6406 67.4609C36.6276 67.5977 36.6309 67.7767 36.6504 67.998C36.6764 68.2194 36.7253 68.4375 36.7969 68.6523C36.8685 68.8672 36.9759 69.0527 37.1191 69.209C37.2624 69.3587 37.4512 69.4336 37.6855 69.4336C37.8548 69.4336 38.0208 69.3913 38.1836 69.3066C38.3464 69.2155 38.5026 69.0983 38.6523 68.9551C38.8021 68.8118 38.9388 68.6523 39.0625 68.4766C39.1927 68.2943 39.3099 68.112 39.4141 67.9297C39.5247 67.7474 39.6191 67.5749 39.6973 67.4121C39.7754 67.2428 39.8405 67.0996 39.8926 66.9824C39.9251 66.9108 39.9707 66.8555 40.0293 66.8164C40.0879 66.7773 40.153 66.7578 40.2246 66.7578C40.3418 66.7578 40.4329 66.7969 40.498 66.875C40.5632 66.9531 40.5957 67.0378 40.5957 67.1289C40.5957 67.181 40.5859 67.2298 40.5664 67.2754C40.5404 67.3275 40.4883 67.4382 40.4102 67.6074C40.3385 67.7702 40.2409 67.959 40.1172 68.1738C40 68.3822 39.8568 68.6035 39.6875 68.8379C39.5182 69.0723 39.3294 69.2904 39.1211 69.4922C38.9128 69.6875 38.6849 69.8503 38.4375 69.9805C38.1966 70.1042 37.9362 70.166 37.6562 70.166C37.2721 70.166 36.9531 70.0586 36.6992 69.8438C36.4453 69.6224 36.2565 69.3099 36.1328 68.9062ZM42.0703 69.1211C42.1745 68.9062 42.2949 68.6719 42.4316 68.418C42.5684 68.1576 42.7148 67.8971 42.8711 67.6367C43.0273 67.3698 43.1901 67.1061 43.3594 66.8457C43.5352 66.5853 43.7174 66.3379 43.9062 66.1035C44.0951 65.8757 44.2839 65.7129 44.4727 65.6152C44.668 65.5111 44.8503 65.459 45.0195 65.459C45.3581 65.459 45.6087 65.5827 45.7715 65.8301C45.9342 66.0775 46.0156 66.3835 46.0156 66.748C46.0156 66.8327 46.0091 66.9368 45.9961 67.0605C45.9896 67.1777 45.9798 67.3047 45.9668 67.4414C45.9603 67.5781 45.9505 67.7181 45.9375 67.8613C45.931 67.998 45.9277 68.1283 45.9277 68.252C45.9277 68.4082 45.9342 68.5579 45.9473 68.7012C45.9668 68.8444 45.9993 68.9714 46.0449 69.082C46.0905 69.1862 46.1556 69.2708 46.2402 69.3359C46.3249 69.3945 46.4355 69.4238 46.5723 69.4238C46.8197 69.4238 47.0605 69.3294 47.2949 69.1406C47.5293 68.9453 47.7441 68.7174 47.9395 68.457C48.1413 68.1901 48.3138 67.9199 48.457 67.6465C48.6068 67.373 48.7174 67.1517 48.7891 66.9824C48.8216 66.9108 48.8672 66.8555 48.9258 66.8164C48.9909 66.7773 49.0592 66.7578 49.1309 66.7578C49.2415 66.7578 49.3294 66.8001 49.3945 66.8848C49.4661 66.9629 49.502 67.0475 49.502 67.1387C49.502 67.1842 49.4922 67.2298 49.4727 67.2754C49.4466 67.3275 49.3945 67.4349 49.3164 67.5977C49.2383 67.7604 49.1341 67.9492 49.0039 68.1641C48.8802 68.3724 48.7337 68.597 48.5645 68.8379C48.3952 69.0723 48.2064 69.2871 47.998 69.4824C47.7962 69.6777 47.5749 69.8405 47.334 69.9707C47.0996 70.1009 46.8522 70.166 46.5918 70.166C46.2988 70.166 46.0612 70.1107 45.8789 70C45.6966 69.8828 45.5534 69.7331 45.4492 69.5508C45.3451 69.362 45.2734 69.1569 45.2344 68.9355C45.2018 68.7077 45.1855 68.4798 45.1855 68.252C45.1855 68.1543 45.1888 68.0436 45.1953 67.9199C45.2083 67.7962 45.2214 67.666 45.2344 67.5293C45.2539 67.3926 45.2669 67.2559 45.2734 67.1191C45.2865 66.9824 45.293 66.8522 45.293 66.7285C45.293 66.5202 45.2604 66.3802 45.1953 66.3086C45.1302 66.2305 45.0716 66.1914 45.0195 66.1914C44.9154 66.1914 44.7949 66.2533 44.6582 66.377C44.528 66.4941 44.388 66.6504 44.2383 66.8457C44.0951 67.041 43.9453 67.2624 43.7891 67.5098C43.6393 67.7507 43.4961 67.9915 43.3594 68.2324C43.2292 68.4733 43.1055 68.7044 42.9883 68.9258C42.8776 69.1406 42.7897 69.3197 42.7246 69.4629C42.5944 69.7363 42.4642 69.9186 42.334 70.0098C42.2038 70.1074 42.0703 70.1562 41.9336 70.1562C41.7448 70.1562 41.5918 70.1009 41.4746 69.9902C41.3639 69.873 41.3086 69.7103 41.3086 69.502C41.3086 69.4564 41.3151 69.3685 41.3281 69.2383C41.3411 69.1016 41.3574 68.9421 41.377 68.7598C41.3965 68.571 41.416 68.3691 41.4355 68.1543C41.4551 67.9395 41.4746 67.7279 41.4941 67.5195C41.5137 67.3047 41.5299 67.1061 41.543 66.9238C41.556 66.7415 41.5625 66.5885 41.5625 66.4648C41.5625 66.3021 41.556 66.1458 41.543 65.9961C41.5299 65.8464 41.5039 65.7552 41.4648 65.7227C41.4062 65.7422 41.3021 65.8659 41.1523 66.0938C41.0026 66.3151 40.8105 66.709 40.5762 67.2754C40.5436 67.347 40.4948 67.4023 40.4297 67.4414C40.3646 67.4805 40.2962 67.5 40.2246 67.5C40.1139 67.5 40.026 67.4642 39.9609 67.3926C39.8958 67.3145 39.8633 67.2266 39.8633 67.1289C39.8633 67.0833 39.873 67.0345 39.8926 66.9824C40.1855 66.2858 40.459 65.7747 40.7129 65.4492C40.9733 65.1172 41.2305 64.9512 41.4844 64.9512C41.6341 64.9512 41.7611 64.9902 41.8652 65.0684C41.9694 65.14 42.0508 65.2376 42.1094 65.3613C42.1745 65.485 42.2201 65.6217 42.2461 65.7715C42.2786 65.9212 42.2949 66.0742 42.2949 66.2305C42.2949 66.3477 42.2852 66.5299 42.2656 66.7773C42.2526 67.0247 42.2331 67.2917 42.207 67.5781C42.181 67.8581 42.1549 68.138 42.1289 68.418C42.1094 68.6979 42.0898 68.9323 42.0703 69.1211ZM56.7188 60.2246C56.7188 60.3288 56.6829 60.4134 56.6113 60.4785C56.5397 60.5371 56.4518 60.5664 56.3477 60.5664H51.3965V60.6738C51.3965 61.071 51.3672 61.4941 51.3086 61.9434C51.25 62.3926 51.1686 62.8418 51.0645 63.291C50.9668 63.7337 50.8529 64.1667 50.7227 64.5898C50.599 65.013 50.4688 65.4036 50.332 65.7617C50.2018 66.1198 50.0716 66.4323 49.9414 66.6992C49.8112 66.9596 49.694 67.1549 49.5898 67.2852C49.6745 67.5846 49.7754 67.8646 49.8926 68.125C50.0098 68.3789 50.14 68.6035 50.2832 68.7988C50.4329 68.9876 50.5924 69.1374 50.7617 69.248C50.931 69.3587 51.1133 69.4141 51.3086 69.4141C51.5365 69.4141 51.7611 69.3197 51.9824 69.1309C52.2103 68.9355 52.4186 68.7077 52.6074 68.4473C52.8027 68.1803 52.972 67.9134 53.1152 67.6465C53.265 67.373 53.3724 67.1549 53.4375 66.9922C53.5026 66.8359 53.6165 66.7578 53.7793 66.7578C53.89 66.7578 53.9779 66.7969 54.043 66.875C54.1146 66.9531 54.1504 67.0378 54.1504 67.1289C54.1504 67.1745 54.1406 67.2201 54.1211 67.2656C54.1016 67.3112 54.0527 67.4154 53.9746 67.5781C53.903 67.7409 53.8053 67.9297 53.6816 68.1445C53.5645 68.3594 53.4245 68.5872 53.2617 68.8281C53.1055 69.0625 52.9264 69.2773 52.7246 69.4727C52.5293 69.668 52.3177 69.8307 52.0898 69.9609C51.862 70.0911 51.6211 70.1562 51.3672 70.1562C50.918 70.1562 50.5143 70.0098 50.1562 69.7168C49.7982 69.4238 49.4922 69.0137 49.2383 68.4863C48.9909 67.959 48.8021 67.334 48.6719 66.6113C48.5417 65.8887 48.4766 65.0977 48.4766 64.2383C48.4766 64.0234 48.4798 63.7728 48.4863 63.4863C48.4928 63.1934 48.5059 62.8874 48.5254 62.5684C48.5449 62.2428 48.5742 61.9108 48.6133 61.5723C48.6523 61.2272 48.7044 60.8919 48.7695 60.5664H45.2637C45.1595 60.5664 45.0716 60.5371 45 60.4785C44.9284 60.4134 44.8926 60.3288 44.8926 60.2246C44.8926 60.1204 44.9284 60.0391 45 59.9805C45.0716 59.9154 45.1595 59.8828 45.2637 59.8828H48.9355C49.0007 59.6484 49.0755 59.4336 49.1602 59.2383C49.2513 59.043 49.3522 58.8737 49.4629 58.7305C49.5801 58.5872 49.707 58.4766 49.8438 58.3984C49.987 58.3138 50.1432 58.2715 50.3125 58.2715C50.4753 58.2715 50.6152 58.3138 50.7324 58.3984C50.8561 58.4766 50.9603 58.5872 51.0449 58.7305C51.1296 58.8737 51.1947 59.043 51.2402 59.2383C51.2923 59.4336 51.3314 59.6484 51.3574 59.8828H56.3477C56.4518 59.8828 56.5397 59.9154 56.6113 59.9805C56.6829 60.0391 56.7188 60.1204 56.7188 60.2246ZM49.3652 66.3086C49.5605 65.8789 49.7363 65.4167 49.8926 64.9219C50.0553 64.4206 50.1921 63.916 50.3027 63.4082C50.4199 62.9004 50.5078 62.4023 50.5664 61.9141C50.6315 61.4258 50.6641 60.9766 50.6641 60.5664H49.5117C49.4206 60.9701 49.3457 61.4714 49.2871 62.0703C49.235 62.6628 49.209 63.3854 49.209 64.2383C49.209 64.7135 49.222 65.1139 49.248 65.4395C49.2741 65.7585 49.3132 66.0482 49.3652 66.3086ZM50.2734 59.0039C50.2148 59.0039 50.1302 59.069 50.0195 59.1992C49.9089 59.3229 49.7982 59.5508 49.6875 59.8828H50.625C50.5924 59.6094 50.5436 59.3945 50.4785 59.2383C50.4199 59.082 50.3516 59.0039 50.2734 59.0039ZM49.5215 67.0117V67.0215V67.0117ZM54.6484 68.9258C54.7852 69.1146 54.9609 69.2676 55.1758 69.3848C55.3906 69.4954 55.6543 69.5508 55.9668 69.5508C56.2858 69.5508 56.5755 69.4759 56.8359 69.3262C57.0964 69.1699 57.334 68.9681 57.5488 68.7207C57.7637 68.4733 57.9557 68.1966 58.125 67.8906C58.2943 67.5846 58.4473 67.2786 58.584 66.9727C58.6165 66.901 58.6621 66.849 58.7207 66.8164C58.7793 66.7773 58.8444 66.7578 58.916 66.7578C59.0267 66.7578 59.1146 66.7969 59.1797 66.875C59.2513 66.9531 59.2871 67.0378 59.2871 67.1289C59.2871 67.1615 59.2839 67.1908 59.2773 67.2168C59.2708 67.2363 59.2611 67.2591 59.248 67.2852C58.7988 68.2747 58.3073 69.0202 57.7734 69.5215C57.2461 70.0228 56.6471 70.2799 55.9766 70.293C55.5469 70.293 55.1758 70.2083 54.8633 70.0391C54.5508 69.8763 54.2936 69.6647 54.0918 69.4043C53.89 69.1374 53.7402 68.8379 53.6426 68.5059C53.5449 68.1738 53.4961 67.8418 53.4961 67.5098C53.4961 67.1777 53.5352 66.8717 53.6133 66.5918C53.6979 66.3118 53.8151 66.0677 53.9648 65.8594C54.1211 65.651 54.3034 65.4883 54.5117 65.3711C54.7266 65.2539 54.9609 65.1953 55.2148 65.1953C55.3646 65.1953 55.5111 65.2279 55.6543 65.293C55.804 65.3516 55.9375 65.4395 56.0547 65.5566C56.1719 65.6673 56.2663 65.804 56.3379 65.9668C56.4095 66.1296 56.4453 66.3151 56.4453 66.5234C56.4453 66.7904 56.3997 67.041 56.3086 67.2754C56.2174 67.5098 56.0905 67.7279 55.9277 67.9297C55.7715 68.1315 55.5827 68.3171 55.3613 68.4863C55.14 68.6556 54.9023 68.8021 54.6484 68.9258ZM54.3555 68.291C54.5573 68.2064 54.7396 68.099 54.9023 67.9688C55.0716 67.8385 55.2148 67.6953 55.332 67.5391C55.4492 67.3828 55.5404 67.2201 55.6055 67.0508C55.6706 66.875 55.7031 66.6992 55.7031 66.5234C55.7031 66.3281 55.6543 66.1816 55.5566 66.084C55.459 65.9798 55.3451 65.9277 55.2148 65.9277C55.0391 65.9277 54.8893 65.9766 54.7656 66.0742C54.6419 66.1719 54.541 66.2988 54.4629 66.4551C54.3848 66.6113 54.3262 66.7871 54.2871 66.9824C54.2546 67.1712 54.2383 67.36 54.2383 67.5488C54.2383 67.666 54.248 67.7897 54.2676 67.9199C54.2936 68.0501 54.3229 68.1738 54.3555 68.291ZM59.6191 65.9863C59.5931 66.1621 59.5605 66.3281 59.5215 66.4844C59.4824 66.6341 59.4434 66.7676 59.4043 66.8848C59.3717 66.9954 59.3424 67.0866 59.3164 67.1582C59.2904 67.2298 59.2741 67.2689 59.2676 67.2754C59.2025 67.4251 59.0885 67.5 58.9258 67.5C58.8346 67.5 58.75 67.4674 58.6719 67.4023C58.5938 67.3307 58.5547 67.2428 58.5547 67.1387C58.5547 67.0996 58.5612 67.0703 58.5742 67.0508C58.5872 67.0312 58.6068 66.9922 58.6328 66.9336C58.6589 66.875 58.6914 66.7773 58.7305 66.6406C58.7695 66.5039 58.8184 66.2923 58.877 66.0059C58.7663 66.0059 58.6523 66.0026 58.5352 65.9961C58.418 65.9896 58.3105 65.9668 58.2129 65.9277C58.1087 65.8887 58.0241 65.8268 57.959 65.7422C57.8939 65.6576 57.8613 65.5404 57.8613 65.3906C57.8613 65.2799 57.8939 65.1302 57.959 64.9414C58.0176 64.7526 58.099 64.5671 58.2031 64.3848C58.3073 64.2025 58.4245 64.0462 58.5547 63.916C58.6849 63.7793 58.8151 63.7109 58.9453 63.7109C59.0951 63.7109 59.2155 63.7663 59.3066 63.877C59.4043 63.9876 59.4792 64.1243 59.5312 64.2871C59.5833 64.4434 59.6191 64.6094 59.6387 64.7852C59.6647 64.9609 59.6777 65.1139 59.6777 65.2441C59.7884 65.2441 59.8958 65.2441 60 65.2441C60.1107 65.2376 60.2148 65.2344 60.3125 65.2344C60.6836 65.2344 60.9668 65.3158 61.1621 65.4785C61.3574 65.6413 61.4551 65.9082 61.4551 66.2793C61.4551 66.429 61.4453 66.5853 61.4258 66.748C61.4062 66.9108 61.3835 67.0801 61.3574 67.2559C61.3314 67.4251 61.3086 67.5944 61.2891 67.7637C61.2695 67.9329 61.2598 68.099 61.2598 68.2617C61.2598 68.4961 61.2923 68.6914 61.3574 68.8477C61.4225 68.9974 61.5039 69.1178 61.6016 69.209C61.6992 69.3001 61.8034 69.3652 61.9141 69.4043C62.0247 69.4368 62.1257 69.4531 62.2168 69.4531C62.4967 69.4531 62.7604 69.362 63.0078 69.1797C63.2552 68.9974 63.4831 68.7793 63.6914 68.5254C63.8997 68.265 64.0853 67.9915 64.248 67.7051C64.4173 67.4186 64.5573 67.168 64.668 66.9531C64.7005 66.8945 64.7461 66.849 64.8047 66.8164C64.8633 66.7839 64.9251 66.7676 64.9902 66.7676C65.1074 66.7676 65.1986 66.8066 65.2637 66.8848C65.3288 66.9564 65.3613 67.0378 65.3613 67.1289C65.3613 67.194 65.3483 67.2526 65.3223 67.3047C65.1725 67.5716 64.9967 67.8743 64.7949 68.2129C64.5996 68.5449 64.375 68.8574 64.1211 69.1504C63.8672 69.4434 63.5807 69.6908 63.2617 69.8926C62.9492 70.0944 62.6042 70.1953 62.2266 70.1953C61.9922 70.1953 61.7708 70.1497 61.5625 70.0586C61.3542 69.974 61.1719 69.8503 61.0156 69.6875C60.8659 69.5182 60.7454 69.3132 60.6543 69.0723C60.5632 68.8249 60.5176 68.5482 60.5176 68.2422C60.5176 67.9167 60.5501 67.5944 60.6152 67.2754C60.6803 66.9499 60.7129 66.6406 60.7129 66.3477C60.7129 66.224 60.6836 66.1328 60.625 66.0742C60.5729 66.0091 60.4525 65.9766 60.2637 65.9766C60.1725 65.9766 60.0716 65.9766 59.9609 65.9766C59.8568 65.9766 59.7428 65.9798 59.6191 65.9863ZM58.9648 65.2637C58.9648 65.2181 58.9616 65.1595 58.9551 65.0879C58.9551 65.0098 58.9486 64.9349 58.9355 64.8633C58.929 64.7917 58.916 64.7298 58.8965 64.6777C58.8835 64.6257 58.8672 64.5996 58.8477 64.5996C58.8281 64.5996 58.8021 64.6257 58.7695 64.6777C58.7435 64.7233 58.7142 64.7819 58.6816 64.8535C58.6491 64.9186 58.6198 64.9902 58.5938 65.0684C58.5677 65.1465 58.5482 65.2116 58.5352 65.2637H58.9648Z" fill="white"/>
</svg>
