<svg width="80" height="16" viewBox="0 0 80 16" fill="none" xmlns="http://www.w3.org/2000/svg">
<path d="M7.6079 0.1604L9.29153 5.34209H14.7399L10.3321 8.54455L12.0157 13.7262L7.6079 10.5238L3.20009 13.7262L4.88372 8.54455L0.475914 5.34209H5.92426L7.6079 0.1604Z" fill="#FBB001"/>
<path d="M23.6772 0.1604L25.6014 5.34209H31.8281L26.7906 8.54455L28.7147 13.7262L23.6772 10.5238L18.6397 13.7262L20.5639 8.54455L15.5264 5.34209H21.7531L23.6772 0.1604Z" fill="#FBB001"/>
<path d="M55.8159 0.1604L57.7401 5.34209H63.9667L58.9292 8.54455L60.8534 13.7262L55.8159 10.5238L50.7784 13.7262L52.7026 8.54455L47.6651 5.34209H53.8918L55.8159 0.1604Z" fill="#FBB001"/>
<path d="M39.7466 0.1604L41.4302 5.34209H46.8786L42.4707 8.54455L44.1544 13.7262L39.7466 10.5238L35.3388 13.7262L37.0224 8.54455L32.6146 5.34209H38.0629L39.7466 0.1604Z" fill="#FBB001"/>
<path d="M71.8852 0.1604L73.5689 5.34209H79.0172L74.6094 8.54455L76.293 13.7262L71.8852 10.5238L67.4774 13.7262L69.1611 8.54455L64.7533 5.34209H70.2016L71.8852 0.1604Z" fill="#C4C4C4"/>
</svg>
