<svg width="24" height="24" viewBox="0 0 24 24" fill="none" xmlns="http://www.w3.org/2000/svg">
<path d="M23 1.01182C22.0424 1.80582 20.9821 2.41311 19.86 2.81029C19.2577 1.99629 18.4573 1.41935 17.567 1.15749C16.6767 0.895637 15.7395 0.961505 14.8821 1.34619C14.0247 1.73087 13.2884 2.4158 12.773 3.30836C12.2575 4.20091 11.9877 5.25802 12 6.33671V7.51218C10.2426 7.56574 8.50127 7.1076 6.93101 6.17854C5.36074 5.24949 4.01032 3.87837 3 2.18729C3 2.18729 -1 12.7665 8 17.4684C5.94053 19.1117 3.48716 19.9357 1 19.8194C10 25.6967 21 19.8194 21 6.30144C20.9991 5.97402 20.9723 5.6474 20.92 5.3258C21.9406 4.14268 22.6608 2.64891 23 1.01182V1.01182Z" stroke="black" stroke-width="2" stroke-linecap="round" stroke-linejoin="round"/>
</svg>
